<svg width="105" height="30" viewBox="0 0 105 30" fill="none" xmlns="http://www.w3.org/2000/svg">
<path d="M102.945 6.47766V9.29359C102.914 9.28626 102.899 9.28626 102.894 9.28137C102.854 9.23493 102.817 9.1836 102.779 9.13715C102.247 8.45761 101.645 7.84163 100.913 7.36497C98.5719 5.84212 96.0533 5.66856 93.4819 6.62921C90.4514 7.76096 87.6191 10.9802 88.2714 15.5488C88.5097 17.2256 89.2071 18.6947 90.3862 19.9389C92.6264 22.3002 95.3809 23.0482 98.5619 22.332C100.112 21.9824 101.382 21.1367 102.465 20.0196C102.616 19.8656 102.759 19.7043 102.942 19.5087V22.1755H104.984V6.47766H102.942H102.945ZM101.452 18.6923C100.378 19.824 99.0386 20.4767 97.4706 20.6673C94.089 21.0804 91.0986 18.8389 90.4288 15.539C89.8217 12.5495 91.495 9.51848 94.3699 8.45517C98.4415 6.94698 102.287 9.48181 102.952 13.0848C103.032 13.5199 103.057 13.9648 103.11 14.4048C103.065 16.0254 102.596 17.4872 101.454 18.6923H101.452ZM50.6264 6.47766V9.33759C50.5537 9.24471 50.5085 9.18849 50.4634 9.12982C48.765 6.96409 46.5197 5.93989 43.7226 6.07922C41.6078 6.18433 39.8241 7.0032 38.3415 8.45761C36.746 10.022 35.9156 11.9066 35.8805 14.1188C35.8454 16.2137 36.455 18.0958 37.8649 19.6994C39.8091 21.914 42.2801 22.86 45.2504 22.5202C47.1745 22.3002 48.77 21.43 50.0971 20.0734C50.2702 19.8949 50.4383 19.7116 50.6314 19.5087V22.1706H52.6735V6.47766H50.6264ZM49.0886 18.7436C48.035 19.8314 46.7229 20.4669 45.2027 20.6625C41.8687 21.0878 38.9336 18.9489 38.1559 15.7468C37.3957 12.6106 39.3099 9.0736 42.7568 8.23028C46.8358 7.23053 50.0971 9.91447 50.654 13.1557C50.7243 13.5713 50.7443 13.9942 50.7669 14.2117C50.7468 16.0572 50.2627 17.5336 49.0886 18.7461V18.7436ZM67.314 8.22784V22.1706H65.2243V8.23273H62.4171V6.47521H65.2193V2.38293e-05H67.304V6.46055H70.5878V8.22784H67.314ZM14.597 22.2C18.2998 18.5945 21.9976 14.9939 25.7054 11.3835C25.7179 11.3933 25.7505 11.4202 25.7832 11.4495C26.0516 11.7111 26.32 11.9702 26.5859 12.2318C27.2557 12.8893 27.2808 13.9404 26.6286 14.6175C26.325 14.9328 26.0014 15.231 25.6878 15.5366C23.558 17.6094 21.4281 19.6823 19.3008 21.7575C18.9947 22.0558 18.636 22.2024 18.202 22.2C17.0505 22.1951 15.899 22.2 14.7476 22.2H14.597ZM12.5098 22.2H12.3568C11.2204 22.2 10.084 22.2 8.94502 22.2C8.55116 22.2 8.21249 22.0778 7.93152 21.8089C7.30436 21.2076 6.6797 20.6062 6.05505 20.0025C4.7104 18.7021 3.36576 17.4041 2.02112 16.1037C1.52691 15.6246 1.02769 15.1504 0.533482 14.6713C-0.156399 14.0015 -0.181486 12.9602 0.483309 12.2635C0.779331 11.9531 1.10044 11.6695 1.40148 11.3811C5.09674 14.9792 8.79701 18.5823 12.5098 22.1975V22.2ZM81.1317 22.1731H79.0069V6.47766H81.1317V8.71427C81.3901 8.40139 81.6159 8.10318 81.8668 7.82452C82.4764 7.14009 83.1838 6.58032 84.0744 6.27233C85.1481 5.90323 86.1691 6.03767 87.16 6.60721C86.8013 7.17431 86.4426 7.73652 86.0914 8.29139C85.8054 8.21317 85.5369 8.11051 85.2585 8.06651C84.5661 7.95651 83.9565 8.18384 83.392 8.55295C82.5491 9.10293 82.07 9.90958 81.7213 10.8091C81.4152 11.5987 81.3048 12.42 81.2421 13.2535C81.0615 15.6832 81.1568 18.1178 81.1342 20.55C81.1292 21.0267 81.1342 21.5058 81.1342 21.9824V22.1706L81.1317 22.1731ZM12.5475 19.3914C9.31129 16.2406 6.08766 13.0995 2.86905 9.96825C3.56896 9.28626 4.27891 8.5945 4.99639 7.89785C5.02399 7.92474 5.06412 7.95896 5.10175 7.99562C7.54519 10.374 9.98863 12.7549 12.4346 15.1332C12.5174 15.2139 12.5475 15.2921 12.5475 15.4021C12.5449 16.6805 12.5475 17.9614 12.5475 19.2398V19.3914ZM14.5544 19.4109V19.2594C14.5544 17.9663 14.5544 16.6708 14.5544 15.3777C14.5544 15.2823 14.5845 15.2139 14.6522 15.1479C16.5237 13.3293 18.3901 11.5107 20.2591 9.69203C20.8386 9.12738 21.4181 8.56761 21.9976 8.00296C22.0352 7.96629 22.0628 7.91496 22.0879 7.88074C22.8254 8.59939 23.5354 9.28871 24.2353 9.97313C21.0192 13.1093 17.7981 16.2503 14.5544 19.4134V19.4109ZM59.1107 22.1731H57.0461V2.38293e-05H59.1107V22.1706V22.1731ZM73.4076 22.1731V6.4801H75.4697V22.1706H73.4076V22.1731ZM17.1433 2.98218C15.9291 4.16526 14.74 5.32146 13.5635 6.46788C12.3794 5.31413 11.1878 4.15549 9.98863 2.98707C10.0087 2.96507 10.0463 2.92596 10.084 2.88929C10.9369 2.0582 11.7898 1.22711 12.6453 0.396015C13.1847 -0.129529 13.9197 -0.129529 14.4616 0.396015C15.3145 1.22711 16.17 2.0582 17.0229 2.88929C17.058 2.92351 17.1032 2.9504 17.1433 2.98218ZM6.46145 6.47277C7.1413 5.81034 7.84874 5.12347 8.56872 4.42193C8.59632 4.44637 8.63646 4.48059 8.67158 4.51726C9.92591 5.73701 11.1777 6.9592 12.4346 8.17895C12.5148 8.25717 12.5525 8.33539 12.5525 8.44784C12.5475 9.72625 12.55 11.0047 12.55 12.2855V12.4029C10.528 10.4327 8.49346 8.45272 6.46145 6.47521V6.47277ZM14.5544 12.442V12.31C14.5544 11.0169 14.5544 9.72136 14.5594 8.42828C14.5594 8.35495 14.597 8.26451 14.6497 8.21317C15.9141 6.97387 17.1835 5.73945 18.4528 4.50503C18.483 4.4757 18.5181 4.44637 18.5381 4.42926C19.2531 5.12591 19.9631 5.81767 20.663 6.49721C18.6385 8.46983 16.604 10.4498 14.5569 12.442H14.5544ZM76.1169 1.65488C76.1169 2.57152 75.3693 3.29262 74.4286 3.29262C73.5029 3.29262 72.7603 2.56174 72.7603 1.65243C72.7603 0.743118 73.5154 -0.00486495 74.4386 2.38293e-05C75.3719 0.00491261 76.1169 0.740674 76.1169 1.65488Z" fill="white"/>
<path d="M0 26.672H1.86393V26.9824H0.326126V27.9748H1.85139V28.2853H0.326126V29.5319H1.85139V29.8423H0V26.672ZM5.77745 26.672H6.10357V29.5368H7.35539V29.8423H5.77995V26.672H5.77745ZM11.2237 26.672H13.0877V26.9824H11.5474V27.9748H13.0751V28.2853H11.5474V29.5319H13.0751V29.8423H11.2237V26.672ZM16.7528 26.672H17.1066L18.1853 29.1212L19.2816 26.672H19.6353L18.2204 29.8423H18.1502L16.7553 26.672H16.7528ZM24.8608 26.672L26.3786 29.8423H26.0274L25.5156 28.7986H24.1132L23.6065 29.8423H23.2453L24.7806 26.672H24.8608ZM24.8207 27.3466L24.2638 28.493H25.3751L24.8207 27.3466ZM29.9108 26.9824V26.672H31.6944V26.9824H30.9694V29.8423H30.6383V26.9824H29.9133H29.9108ZM35.5151 26.672H37.379V26.9824H35.8412V27.9748H37.3665V28.2853H35.8412V29.5319H37.3665V29.8423H35.5151V26.672ZM45.901 26.672H47.7649V26.9824H46.2271V27.9748H47.7524V28.2853H46.2271V29.5319H47.7524V29.8423H45.901V26.672ZM51.6809 29.8423V26.672H51.7512L53.9161 29.1017V26.672H54.2372V29.8423H54.1645L52.0171 27.442V29.8423H51.6809ZM58.0579 26.9824V26.672H59.8416V26.9824H59.1166V29.8423H58.7854V26.9824H58.0604H58.0579ZM63.6623 26.672H65.5262V26.9824H63.9884V27.9748H65.5137V28.2853H63.9884V29.5319H65.5137V29.8423H63.6623V26.672ZM69.4573 26.672H70.1045C70.4658 26.672 70.7116 26.6866 70.8396 26.716C71.0327 26.76 71.1883 26.8529 71.3112 26.9922C71.4316 27.134 71.4918 27.3075 71.4918 27.5153C71.4918 27.6888 71.4492 27.8404 71.3664 27.9699C71.2836 28.0995 71.1657 28.1997 71.0102 28.2657C70.8546 28.3317 70.6414 28.3659 70.3679 28.3684L71.537 29.8399H71.1356L69.9666 28.3684H69.7834V29.8399H69.4598V26.6695L69.4573 26.672ZM69.7809 26.9824V28.0604L70.3403 28.0653C70.5586 28.0653 70.7191 28.0457 70.822 28.0042C70.9274 27.9626 71.0076 27.8991 71.0653 27.8111C71.123 27.7231 71.1532 27.6228 71.1532 27.5153C71.1532 27.4077 71.123 27.3124 71.0628 27.2268C71.0051 27.1413 70.9274 27.0777 70.8295 27.0411C70.7342 27.0044 70.5736 26.9849 70.3529 26.9849H69.7784L69.7809 26.9824ZM75.5358 26.672H76.183C76.5543 26.672 76.8052 26.6866 76.9356 26.7184C77.1212 26.7624 77.2743 26.8553 77.3922 26.9922C77.5101 27.1315 77.5703 27.3051 77.5703 27.5153C77.5703 27.7255 77.5126 27.9015 77.3972 28.0384C77.2818 28.1753 77.1238 28.2682 76.9231 28.3146C76.7751 28.3488 76.4991 28.3659 76.0952 28.3659H75.8644V29.8399H75.5383V26.6695L75.5358 26.672ZM75.8619 26.9824V28.0579L76.4138 28.0653C76.6371 28.0653 76.7976 28.0457 76.903 28.0066C77.0059 27.9675 77.0861 27.9039 77.1463 27.8159C77.2065 27.7279 77.2341 27.6302 77.2341 27.5202C77.2341 27.4102 77.204 27.3173 77.1463 27.2293C77.0886 27.1413 77.0084 27.0777 76.913 27.0411C76.8177 27.0044 76.6597 26.9849 76.4389 26.9849H75.8644L75.8619 26.9824ZM81.5892 26.672H82.2364C82.5977 26.672 82.8435 26.6866 82.9714 26.716C83.1646 26.76 83.3202 26.8529 83.4431 26.9922C83.5635 27.134 83.6237 27.3075 83.6237 27.5153C83.6237 27.6888 83.5811 27.8404 83.4983 27.9699C83.4155 28.0995 83.2976 28.1997 83.142 28.2657C82.9865 28.3317 82.7733 28.3659 82.4998 28.3684L83.6689 29.8399H83.2675L82.0984 28.3684H81.9153V29.8399H81.5917V26.6695L81.5892 26.672ZM81.9128 26.9824V28.0604L82.4722 28.0653C82.6905 28.0653 82.851 28.0457 82.9539 28.0042C83.0593 27.9626 83.1395 27.8991 83.1972 27.8111C83.2549 27.7231 83.285 27.6228 83.285 27.5153C83.285 27.4077 83.2549 27.3124 83.1947 27.2268C83.137 27.1413 83.0593 27.0777 82.9614 27.0411C82.8661 27.0044 82.7055 26.9849 82.4848 26.9849H81.9103L81.9128 26.9824ZM87.6225 26.672H87.9486V29.8423H87.6225V26.672ZM91.7091 29.2508L91.9851 29.0895C92.1807 29.439 92.404 29.6126 92.6599 29.6126C92.7678 29.6126 92.8706 29.5881 92.966 29.5392C93.0613 29.4904 93.134 29.4244 93.1842 29.3412C93.2344 29.2581 93.2595 29.1701 93.2595 29.0748C93.2595 28.9697 93.2218 28.8646 93.1491 28.7619C93.0462 28.6201 92.8631 28.4515 92.5922 28.2535C92.3212 28.0531 92.1532 27.9088 92.0854 27.8208C91.97 27.6717 91.9123 27.5104 91.9123 27.3368C91.9123 27.2 91.9449 27.0729 92.0152 26.9604C92.0829 26.848 92.1782 26.7575 92.3012 26.6915C92.4241 26.6255 92.557 26.5938 92.7025 26.5938C92.8556 26.5938 92.9986 26.6304 93.134 26.7037C93.267 26.7771 93.4075 26.914 93.558 27.112L93.2921 27.3075C93.1692 27.1486 93.0638 27.046 92.9785 26.9946C92.8932 26.9433 92.7979 26.9189 92.695 26.9189C92.5646 26.9189 92.4567 26.958 92.3739 27.0362C92.2911 27.1144 92.2485 27.2097 92.2485 27.3222C92.2485 27.3906 92.2635 27.4566 92.2911 27.5226C92.3212 27.5862 92.3739 27.6571 92.4542 27.7328C92.4968 27.7719 92.6373 27.8795 92.8731 28.0482C93.1541 28.251 93.3473 28.4319 93.4526 28.5884C93.558 28.7473 93.6107 28.9061 93.6107 29.065C93.6107 29.2948 93.5204 29.4952 93.3422 29.6639C93.1641 29.8326 92.9459 29.9181 92.69 29.9181C92.4918 29.9181 92.3137 29.8668 92.1531 29.7641C91.9926 29.6615 91.8446 29.4904 91.7091 29.2484V29.2508ZM97.6546 26.672H99.5186V26.9824H97.9808V27.9748H99.506V28.2853H97.9808V29.5319H99.506V29.8423H97.6546V26.672ZM103.096 29.2508L103.372 29.0895C103.568 29.439 103.791 29.6126 104.047 29.6126C104.155 29.6126 104.257 29.5881 104.353 29.5392C104.448 29.4904 104.521 29.4244 104.571 29.3412C104.621 29.2581 104.646 29.1701 104.646 29.0748C104.646 28.9697 104.609 28.8646 104.536 28.7619C104.433 28.6201 104.25 28.4515 103.979 28.2535C103.708 28.0531 103.54 27.9088 103.472 27.8208C103.357 27.6717 103.299 27.5104 103.299 27.3368C103.299 27.2 103.332 27.0729 103.402 26.9604C103.47 26.848 103.565 26.7575 103.688 26.6915C103.811 26.6255 103.944 26.5938 104.089 26.5938C104.242 26.5938 104.385 26.6304 104.521 26.7037C104.654 26.7771 104.794 26.914 104.945 27.112L104.679 27.3075C104.556 27.1486 104.451 27.046 104.365 26.9946C104.28 26.9433 104.185 26.9189 104.082 26.9189C103.951 26.9189 103.844 26.958 103.761 27.0362C103.678 27.1144 103.635 27.2097 103.635 27.3222C103.635 27.3906 103.65 27.4566 103.678 27.5226C103.708 27.5862 103.761 27.6571 103.841 27.7328C103.884 27.7719 104.024 27.8795 104.26 28.0482C104.541 28.251 104.734 28.4319 104.839 28.5884C104.945 28.7473 104.997 28.9061 104.997 29.065C104.997 29.2948 104.907 29.4952 104.729 29.6639C104.551 29.8326 104.333 29.9181 104.077 29.9181C103.879 29.9181 103.701 29.8668 103.54 29.7641C103.379 29.6615 103.231 29.4904 103.096 29.2484V29.2508Z" fill="white"/>
</svg>
