<svg width="29" height="29" viewBox="0 0 29 29" fill="none" xmlns="http://www.w3.org/2000/svg">
<path d="M25.2508 0H2.85078C1.31078 0 0.0647812 1.60447 0.0647812 3.56548L0.0507812 24.9584C0.0507812 26.9194 1.31078 28.5239 2.85078 28.5239H25.2508C26.7908 28.5239 28.0508 26.9194 28.0508 24.9584V3.56548C28.0508 1.60447 26.7908 0 25.2508 0ZM24.6908 7.57665L14.7928 15.4564C14.3448 15.8129 13.7568 15.8129 13.3088 15.4564L3.41078 7.57665C3.2704 7.47631 3.14747 7.34073 3.04943 7.17813C2.95138 7.01553 2.88027 6.82929 2.84039 6.63068C2.80051 6.43207 2.79269 6.22522 2.8174 6.02265C2.84212 5.82008 2.89885 5.626 2.98418 5.45216C3.0695 5.27832 3.18164 5.12834 3.3138 5.01128C3.44596 4.89422 3.5954 4.81253 3.75307 4.77115C3.91075 4.72977 4.07338 4.72956 4.23112 4.77053C4.38886 4.8115 4.53843 4.8928 4.67078 5.00951L14.0508 12.4792L23.4308 5.00951C23.5631 4.8928 23.7127 4.8115 23.8704 4.77053C24.0282 4.72956 24.1908 4.72977 24.3485 4.77115C24.5062 4.81253 24.6556 4.89422 24.7878 5.01128C24.9199 5.12834 25.0321 5.27832 25.1174 5.45216C25.2027 5.626 25.2594 5.82008 25.2842 6.02265C25.3089 6.22522 25.3011 6.43207 25.2612 6.63068C25.2213 6.82929 25.1502 7.01553 25.0521 7.17813C24.9541 7.34073 24.8312 7.47631 24.6908 7.57665Z" fill="white"/>
</svg>
