<svg width="29" height="29" viewBox="0 0 29 29" fill="none" xmlns="http://www.w3.org/2000/svg">
<path d="M14.0508 7.6795C12.7728 7.6795 11.5235 8.06556 10.4609 8.78885C9.39835 9.51213 8.57016 10.5402 8.0811 11.7429C7.59204 12.9457 7.46408 14.2692 7.7134 15.5461C7.96272 16.823 8.57812 17.9959 9.48178 18.9164C10.3854 19.837 11.5368 20.4639 12.7902 20.7179C14.0436 20.9719 15.3428 20.8415 16.5235 20.3433C17.7042 19.8451 18.7134 19.0014 19.4234 17.9189C20.1334 16.8365 20.5123 15.5638 20.5123 14.2619C20.5105 12.5167 19.8292 10.8435 18.6178 9.60946C17.4064 8.37541 15.7639 7.68132 14.0508 7.6795ZM14.0508 18.6502C13.1988 18.6502 12.366 18.3929 11.6576 17.9107C10.9492 17.4285 10.397 16.7431 10.071 15.9413C9.74495 15.1394 9.65965 14.2571 9.82586 13.4058C9.99207 12.5546 10.4023 11.7727 11.0048 11.1589C11.6072 10.5452 12.3748 10.1273 13.2104 9.95797C14.046 9.78865 14.9121 9.87555 15.6993 10.2077C16.4864 10.5398 17.1592 11.1023 17.6325 11.8239C18.1058 12.5456 18.3585 13.394 18.3585 14.2619C18.3585 15.4258 17.9046 16.542 17.0968 17.3649C16.2889 18.1879 15.1933 18.6502 14.0508 18.6502ZM20.5123 0H7.58924C5.59057 0.002178 3.67438 0.811966 2.26111 2.25168C0.847835 3.6914 0.0529192 5.64344 0.0507812 7.6795V20.8444C0.0529192 22.8804 0.847835 24.8325 2.26111 26.2722C3.67438 27.7119 5.59057 28.5217 7.58924 28.5239H20.5123C22.511 28.5217 24.4272 27.7119 25.8405 26.2722C27.2537 24.8325 28.0486 22.8804 28.0508 20.8444V7.6795C28.0486 5.64344 27.2537 3.6914 25.8405 2.25168C24.4272 0.811966 22.511 0.002178 20.5123 0ZM25.8969 20.8444C25.8969 22.2992 25.3296 23.6944 24.3198 24.7231C23.31 25.7518 21.9404 26.3297 20.5123 26.3297H7.58924C6.16115 26.3297 4.79156 25.7518 3.78174 24.7231C2.77193 23.6944 2.20463 22.2992 2.20463 20.8444V7.6795C2.20463 6.2247 2.77193 4.82947 3.78174 3.80077C4.79156 2.77206 6.16115 2.19414 7.58924 2.19414H20.5123C21.9404 2.19414 23.31 2.77206 24.3198 3.80077C25.3296 4.82947 25.8969 6.2247 25.8969 7.6795V20.8444ZM22.6662 7.13097C22.6662 7.45644 22.5714 7.7746 22.3939 8.04522C22.2164 8.31584 21.9641 8.52676 21.669 8.65131C21.3738 8.77586 21.049 8.80845 20.7356 8.74496C20.4223 8.68146 20.1344 8.52473 19.9085 8.29459C19.6826 8.06445 19.5288 7.77123 19.4664 7.45201C19.4041 7.13279 19.4361 6.80192 19.5584 6.50122C19.6806 6.20053 19.8877 5.94352 20.1533 5.7627C20.419 5.58187 20.7313 5.48536 21.0508 5.48536C21.4792 5.48536 21.8901 5.65874 22.193 5.96735C22.496 6.27596 22.6662 6.69453 22.6662 7.13097Z" fill="white"/>
</svg>
