<svg width="29" height="29" viewBox="0 0 29 29" fill="none" xmlns="http://www.w3.org/2000/svg">
<path d="M25.9508 0H2.15078C0.984115 0 0.0507812 0.954774 0.0507812 2.02889V26.495C0.0507812 27.5691 0.984115 28.5239 2.15078 28.5239H25.9508C27.1174 28.5239 28.0508 27.5691 28.0508 26.495V2.02889C28.0508 0.954774 27.1174 0 25.9508 0ZM8.33412 24.3467H4.25078V10.7412H8.33412V24.3467ZM6.35078 8.83166C5.06745 8.83166 3.90078 7.75754 3.90078 6.32538C3.90078 4.89322 4.95078 3.8191 6.35078 3.8191C7.63411 3.8191 8.80078 4.89322 8.80078 6.32538C8.80078 7.75754 7.63411 8.83166 6.35078 8.83166ZM23.9674 24.2274H19.8841V17.544C19.8841 15.9925 19.8841 13.8442 17.6674 13.8442C15.4508 13.8442 15.2174 15.6344 15.2174 17.3053V24.108H11.1341V10.7412H14.9841V12.5314H15.1008C15.6841 11.4573 17.0841 10.2638 19.0674 10.2638C23.2674 10.2638 24.0841 13.1281 24.0841 16.8279V24.2274H23.9674Z" fill="white"/>
</svg>
