<svg width="429" height="412" viewBox="0 0 429 412" fill="none" xmlns="http://www.w3.org/2000/svg">
<path d="M217.41 253.962H217.816C220.849 253.962 223.876 253.951 226.909 253.962C228.053 253.962 228.997 253.573 229.803 252.767C235.402 247.163 241.007 241.564 246.611 235.964C247.439 235.137 248.289 234.331 249.089 233.481C250.727 231.732 250.772 229.015 249.161 227.243C248.361 226.36 247.472 225.555 246.65 224.738C236.896 234.481 227.164 244.213 217.416 253.951L217.41 253.962Z" fill="#16BAC9"/>
<path d="M182.687 224.73C181.904 225.503 181.071 226.264 180.299 227.091C178.51 229.008 178.582 231.807 180.432 233.651C181.721 234.934 183.026 236.212 184.315 237.495C187.853 241.006 191.392 244.516 194.936 248.027C196.58 249.655 198.224 251.282 199.874 252.904C200.612 253.626 201.507 253.965 202.54 253.965C205.534 253.965 208.522 253.965 211.516 253.965H211.927C202.151 244.194 192.414 234.462 182.682 224.736L182.687 224.73Z" fill="#16BAC9"/>
<path d="M212.024 246.277V245.961C212.024 242.506 212.024 239.051 212.029 235.596C212.029 235.296 211.946 235.085 211.73 234.868C205.292 228.447 198.865 222.02 192.432 215.593C192.332 215.493 192.227 215.399 192.155 215.332C190.266 217.221 188.4 219.087 186.605 220.876C195.071 229.336 203.564 237.823 212.024 246.277Z" fill="#16BAC9"/>
<path d="M242.745 220.918C240.912 219.085 239.04 217.219 237.118 215.297C237.063 215.375 236.996 215.497 236.901 215.586C235.368 217.119 233.83 218.641 232.297 220.174C227.386 225.079 222.481 229.984 217.565 234.883C217.371 235.077 217.288 235.266 217.293 235.538C217.304 239.021 217.299 242.504 217.299 245.981V246.37C225.814 237.849 234.302 229.356 242.745 220.907V220.918Z" fill="#16BAC9"/>
<path d="M224.074 202.018C224.008 201.968 223.896 201.896 223.802 201.802C221.552 199.558 219.308 197.313 217.059 195.069C215.631 193.647 213.704 193.642 212.282 195.064C210.026 197.319 207.771 199.574 205.516 201.829C205.427 201.918 205.338 202.018 205.271 202.09C208.415 205.234 211.548 208.362 214.637 211.45C217.764 208.328 220.897 205.196 224.074 202.018Z" fill="#16BAC9"/>
<path d="M212.023 227.175C212.023 223.72 212.023 220.265 212.028 216.81C212.028 216.504 211.934 216.293 211.723 216.082C208.417 212.788 205.118 209.489 201.818 206.195C201.719 206.095 201.613 206.006 201.58 205.973C199.68 207.872 197.814 209.739 195.98 211.566C201.291 216.871 206.634 222.215 212.023 227.597V227.175Z" fill="#16BAC9"/>
<path d="M233.369 211.54C231.53 209.701 229.664 207.835 227.781 205.957C227.742 205.99 227.67 206.046 227.608 206.107C224.242 209.473 220.876 212.834 217.515 216.206C217.388 216.333 217.31 216.572 217.31 216.761C217.299 220.255 217.299 223.749 217.299 227.248V227.598C222.681 222.221 228.036 216.867 233.363 211.54H233.369Z" fill="#16BAC9"/>
<g opacity="0.85">
<path d="M351.749 137.269C351.749 61.4557 290.293 0 214.48 0C138.667 0 77.2109 61.4557 77.2109 137.269C77.2109 137.723 77.2109 138.171 77.222 138.626C77.222 138.941 77.2276 139.257 77.2331 139.572C77.2442 140.336 77.2608 141.095 77.2885 141.859C77.3106 142.54 77.3383 143.227 77.3715 143.902V143.963C77.3771 144.085 77.3826 144.212 77.3881 144.334C77.4213 144.999 77.4601 145.663 77.5044 146.322C77.5432 146.953 77.5875 147.573 77.6373 148.194C77.6594 148.465 77.6816 148.736 77.7093 149.007C77.737 149.39 77.7702 149.761 77.8089 150.137C77.8145 150.203 77.82 150.275 77.8256 150.342C77.8366 150.48 77.8532 150.613 77.8643 150.752C77.8699 150.824 77.8809 150.896 77.8865 150.968C77.9474 151.566 78.0083 152.164 78.0803 152.756C78.1024 152.944 78.1246 153.133 78.1412 153.326C78.1799 153.648 78.2131 153.974 78.2574 154.301C78.2685 154.367 78.2741 154.434 78.2851 154.5C78.2851 154.522 78.2851 154.545 78.2851 154.567C78.3017 154.711 78.3184 154.855 78.3405 154.999C78.4014 155.491 78.4734 155.979 78.5398 156.466C78.6174 157.036 78.7004 157.607 78.789 158.177C78.8721 158.742 78.9662 159.306 79.0603 159.877C79.1378 160.353 79.2209 160.829 79.3039 161.305C79.3427 161.516 79.3759 161.721 79.4147 161.931C79.5808 162.833 79.7469 163.736 79.9352 164.628C79.9518 164.699 79.9628 164.771 79.9795 164.843C79.9905 164.893 79.9961 164.943 80.0071 164.987C80.057 165.253 80.1124 165.513 80.1733 165.774C80.1788 165.801 80.1843 165.829 80.1899 165.857C80.2674 166.255 80.356 166.654 80.4446 167.047C80.5332 167.457 80.6273 167.861 80.7214 168.271C80.8488 168.825 80.9817 169.378 81.1146 169.926C81.2474 170.48 81.3859 171.028 81.5298 171.576C81.6683 172.125 81.8122 172.673 81.9617 173.215C82.078 173.647 82.1943 174.079 82.3161 174.506C82.377 174.733 82.4434 174.954 82.5044 175.176C82.6262 175.607 82.7535 176.045 82.8864 176.471C83.047 177.014 83.2076 177.551 83.3792 178.088C83.5453 178.625 83.717 179.162 83.8886 179.699C84.0603 180.231 84.2375 180.762 84.4202 181.294C84.542 181.671 84.6693 182.042 84.8022 182.412C84.9628 182.883 85.1289 183.354 85.3006 183.819C85.4722 184.312 85.6549 184.799 85.8377 185.286C85.8875 185.419 85.9318 185.546 85.9816 185.674C86.109 186.012 86.2363 186.349 86.3692 186.682C86.4855 186.992 86.6018 187.296 86.7291 187.601C86.8952 188.022 87.0613 188.442 87.233 188.863C87.3548 189.179 87.4877 189.494 87.6206 189.804C87.7479 190.131 87.8864 190.458 88.0248 190.785C88.2075 191.211 88.3902 191.637 88.573 192.058C88.656 192.241 88.7335 192.429 88.8166 192.612C88.9606 192.933 89.1045 193.26 89.2485 193.581C89.7302 194.655 90.2285 195.724 90.7435 196.781C90.9484 197.207 91.1532 197.639 91.3692 198.066C91.4135 198.16 91.4578 198.254 91.5076 198.343C91.6405 198.614 91.7734 198.885 91.9173 199.157C91.9395 199.201 91.9616 199.24 91.9838 199.284C92.1277 199.566 92.2717 199.849 92.4157 200.131C92.6039 200.502 92.7977 200.873 92.9915 201.238C93.2462 201.726 93.5065 202.213 93.7722 202.7C94.038 203.187 94.3038 203.675 94.5751 204.156C94.8464 204.638 95.1177 205.12 95.3946 205.596C95.5718 205.906 95.749 206.216 95.9317 206.526C96.1476 206.892 96.358 207.257 96.5795 207.617C96.8232 208.032 97.0723 208.448 97.327 208.857C97.5153 209.168 97.7091 209.478 97.9029 209.788C98.4289 210.64 98.9715 211.482 99.5197 212.318C99.7301 212.639 99.9405 212.96 100.156 213.282C100.5 213.796 100.843 214.306 101.197 214.815C101.43 215.164 101.674 215.513 101.917 215.862C102.117 216.15 102.321 216.443 102.532 216.731C102.847 217.18 103.169 217.628 103.495 218.071C103.767 218.442 104.038 218.813 104.309 219.178C104.481 219.411 104.653 219.638 104.83 219.865C105.09 220.214 105.35 220.557 105.616 220.901C105.871 221.238 106.136 221.576 106.402 221.914C106.452 221.986 106.513 222.052 106.568 222.124C106.829 222.462 107.089 222.789 107.36 223.121C107.864 223.758 108.379 224.383 108.899 225.009C109.414 225.629 109.935 226.244 110.455 226.847C110.71 227.141 110.965 227.434 111.219 227.722C111.491 228.038 111.768 228.348 112.05 228.658C112.266 228.907 112.493 229.156 112.72 229.405C112.77 229.461 112.82 229.511 112.864 229.566C113.357 230.109 113.855 230.646 114.359 231.177C114.425 231.255 114.492 231.327 114.569 231.399C114.835 231.681 115.101 231.964 115.367 232.246C115.66 232.55 115.954 232.855 116.253 233.16C116.507 233.431 116.779 233.702 117.044 233.962L117.061 233.979C117.061 233.979 117.089 234.007 117.105 234.023L117.205 234.123C117.31 234.234 117.415 234.344 117.532 234.45C117.582 234.499 117.631 234.555 117.687 234.605C117.98 234.904 118.279 235.197 118.584 235.491C119.032 235.934 119.486 236.371 119.946 236.803C120.549 237.384 121.164 237.955 121.779 238.514C122 238.719 122.227 238.924 122.449 239.123C122.936 239.566 123.429 240.003 123.921 240.435C124.342 240.812 124.769 241.183 125.201 241.543C125.638 241.919 126.075 242.29 126.518 242.661C126.563 242.7 126.607 242.733 126.651 242.772L126.751 242.855C126.751 242.855 126.79 242.888 126.806 242.899C126.978 243.038 127.144 243.176 127.31 243.314C127.476 243.453 127.642 243.586 127.808 243.724C128.119 243.979 128.429 244.228 128.739 244.477C129.004 244.693 129.27 244.904 129.542 245.108C129.852 245.358 130.162 245.601 130.472 245.839C130.854 246.138 131.236 246.432 131.623 246.72C132.011 247.019 132.399 247.307 132.786 247.595C133.08 247.816 133.379 248.032 133.672 248.248C134.27 248.685 134.868 249.112 135.472 249.538C135.881 249.832 136.302 250.119 136.718 250.407C137.382 250.861 138.052 251.316 138.722 251.758C138.955 251.919 139.198 252.074 139.431 252.224C139.458 252.246 139.481 252.262 139.508 252.279C139.536 252.296 139.558 252.312 139.586 252.329C139.885 252.523 140.184 252.716 140.488 252.91C141.153 253.337 141.823 253.757 142.498 254.173C142.941 254.449 143.384 254.721 143.833 254.987C144.303 255.269 144.774 255.551 145.25 255.828C145.887 256.199 146.524 256.57 147.166 256.93C148.777 243.486 152.26 230.408 157.559 217.872C164.89 200.535 175.388 184.971 188.755 171.604C194.408 165.951 200.46 160.807 206.872 156.206C209.353 154.417 211.889 152.717 214.474 151.095C221.003 147.003 227.863 143.437 235.022 140.408C252.973 132.817 272.043 128.963 291.688 128.963C311.339 128.963 330.403 132.817 348.355 140.408C349.468 140.879 350.569 141.361 351.666 141.859C351.693 141.095 351.71 140.336 351.721 139.572C351.732 139.257 351.732 138.941 351.732 138.626C351.743 138.171 351.743 137.723 351.743 137.269H351.749Z" fill="#9FECF3"/>
<path d="M428.963 274.54C429.395 227.336 403.359 181.34 362.873 157.143C332.939 138.793 295.852 132.836 261.633 140.576C247.741 143.677 234.347 148.976 222.082 156.207C302.602 212.248 302.535 336.881 222.088 392.877C234.352 400.103 247.735 405.408 261.633 408.503C345.94 428.315 430.042 361.322 428.963 274.54Z" fill="#3EDBEA"/>
<path d="M274.538 274.532C274.538 272.998 274.51 271.47 274.46 269.948C273.364 270.446 272.262 270.928 271.149 271.398C253.198 278.99 234.134 282.838 214.483 282.838C194.832 282.838 175.768 278.99 157.817 271.398C156.704 270.928 155.602 270.446 154.506 269.948C151.743 268.702 149.035 267.373 146.372 265.961C133.576 259.189 121.898 250.557 111.544 240.203C98.1774 226.836 87.6847 211.266 80.3536 193.929C75.0491 181.394 71.5719 168.31 69.9606 154.871C28.2002 178.409 0 223.182 0 274.532C0 350.345 61.4557 411.801 137.269 411.801C162.673 411.801 186.466 404.896 206.875 392.87C209.466 391.342 212.002 389.73 214.483 388.042C250.734 363.335 274.538 321.713 274.538 274.532Z" fill="#19BFCF"/>
</g>
<path d="M147.829 82.1211V72.5946H144.277V71.0576H153.107V72.5946H149.54V82.1211H147.829ZM155.563 82.2806C154.78 82.2806 154.084 82.1018 153.475 81.7441C152.866 81.3768 152.392 80.8789 152.054 80.2506C151.715 79.6126 151.546 78.9021 151.546 78.1191C151.546 77.3844 151.696 76.6933 151.996 76.0456C152.305 75.3979 152.759 74.8759 153.359 74.4796C153.958 74.0833 154.678 73.8851 155.519 73.8851C156.234 73.8851 156.892 74.0398 157.491 74.3491C158.1 74.6584 158.588 75.1224 158.956 75.7411C159.323 76.3501 159.507 77.0944 159.507 77.9741V78.4091H154.055C153.581 78.4091 153.243 78.3946 153.04 78.3656L152.982 78.5976C153.069 78.6169 153.127 78.6556 153.156 78.7136C153.194 78.7619 153.233 78.8393 153.272 78.9456C153.291 79.0229 153.334 79.1341 153.402 79.2791C153.595 79.7721 153.885 80.1636 154.272 80.4536C154.659 80.7436 155.099 80.8886 155.592 80.8886C156.104 80.8886 156.544 80.7581 156.911 80.4971C157.278 80.2264 157.544 79.8833 157.709 79.4676H159.376C159.105 80.2989 158.646 80.9756 157.999 81.4976C157.361 82.0196 156.549 82.2806 155.563 82.2806ZM153.243 77.3651C153.378 77.2781 153.504 77.2153 153.62 77.1766C153.736 77.1379 153.866 77.1186 154.011 77.1186H157.071C157.235 77.1186 157.375 77.1379 157.491 77.1766C157.617 77.2153 157.752 77.2781 157.897 77.3651L158.042 77.1766C157.955 77.1186 157.897 77.0703 157.868 77.0316C157.839 76.9833 157.815 76.9204 157.796 76.8431C157.776 76.7078 157.713 76.5434 157.607 76.3501C157.414 75.9828 157.133 75.7024 156.766 75.5091C156.408 75.3061 156.012 75.2046 155.577 75.2046C155.123 75.2046 154.722 75.3061 154.374 75.5091C154.026 75.7024 153.75 75.9828 153.547 76.3501C153.46 76.4951 153.392 76.6594 153.344 76.8431C153.325 76.9204 153.301 76.9833 153.272 77.0316C153.252 77.0799 153.199 77.1283 153.112 77.1766L153.243 77.3651ZM164.535 82.2806C163.752 82.2806 163.056 82.1018 162.447 81.7441C161.847 81.3864 161.379 80.8886 161.04 80.2506C160.702 79.6029 160.533 78.8683 160.533 78.0466C160.533 77.2443 160.702 76.5289 161.04 75.9006C161.379 75.2723 161.847 74.7793 162.447 74.4216C163.056 74.0639 163.752 73.8851 164.535 73.8851C165.472 73.8851 166.265 74.1268 166.913 74.6101C167.57 75.0934 167.995 75.7411 168.189 76.5531H166.478C166.333 76.1374 166.091 75.8136 165.753 75.5816C165.414 75.3496 165.008 75.2336 164.535 75.2336C164.071 75.2336 163.66 75.3544 163.302 75.5961C162.945 75.8281 162.664 76.1568 162.461 76.5821C162.258 77.0074 162.157 77.4956 162.157 78.0466C162.157 78.6169 162.258 79.1196 162.461 79.5546C162.664 79.9896 162.945 80.3279 163.302 80.5696C163.66 80.8113 164.071 80.9321 164.535 80.9321C165.037 80.9321 165.463 80.8016 165.811 80.5406C166.168 80.2699 166.405 79.9123 166.521 79.4676H168.247C168.063 80.3376 167.633 81.0239 166.956 81.5266C166.289 82.0293 165.482 82.2806 164.535 82.2806ZM169.528 71.0576H171.123V74.4361C171.123 74.5811 171.108 74.7019 171.079 74.7986C171.05 74.8953 170.997 74.9871 170.92 75.0741L171.123 75.2046C171.461 74.7309 171.809 74.3926 172.167 74.1896C172.524 73.9866 172.94 73.8851 173.414 73.8851C174.603 73.8851 175.419 74.3201 175.864 75.1901C176.028 75.5091 176.13 75.8378 176.169 76.1761C176.207 76.5048 176.227 76.9011 176.227 77.3651V82.1211H174.632V77.3506C174.632 76.9253 174.598 76.5773 174.53 76.3066C174.462 76.0263 174.351 75.8039 174.197 75.6396C173.955 75.3689 173.578 75.2336 173.066 75.2336C172.486 75.2336 172.036 75.4173 171.717 75.7846C171.504 76.0166 171.35 76.3308 171.253 76.7271C171.166 77.1234 171.123 77.6599 171.123 78.3366V82.1211H169.528V71.0576ZM185.002 82.2951C184.345 82.2951 183.741 82.1888 183.19 81.9761C182.639 81.7538 182.199 81.4348 181.87 81.0191C181.551 80.5938 181.392 80.0863 181.392 79.4966C181.392 78.9359 181.532 78.4333 181.812 77.9886C182.102 77.5439 182.47 77.1669 182.914 76.8576C183.175 76.6836 183.398 76.5628 183.581 76.4951C183.775 76.4178 184.016 76.3743 184.306 76.3646L184.335 76.1616C183.91 75.9973 183.557 75.7314 183.277 75.3641C183.074 75.1224 182.914 74.8566 182.798 74.5666C182.692 74.2669 182.639 73.9624 182.639 73.6531C182.639 73.0634 182.774 72.5608 183.045 72.1451C183.316 71.7294 183.683 71.4153 184.147 71.2026C184.611 70.9899 185.118 70.8836 185.669 70.8836C186.191 70.8836 186.67 70.9851 187.105 71.1881C187.54 71.3814 187.883 71.6666 188.134 72.0436C188.395 72.4206 188.526 72.8749 188.526 73.4066C188.526 74.3733 188.033 75.2191 187.047 75.9441C186.873 76.0601 186.713 76.1423 186.568 76.1906C186.423 76.2389 186.235 76.2679 186.003 76.2776L185.974 76.4661C186.167 76.5338 186.312 76.6111 186.409 76.6981C186.515 76.7754 186.636 76.9059 186.771 77.0896L187.656 78.1626C187.772 78.3269 187.864 78.4719 187.931 78.5976C187.999 78.7136 188.052 78.8779 188.091 79.0906L188.294 79.1341C188.516 78.7378 188.681 78.3463 188.787 77.9596C188.893 77.5633 188.975 77.1186 189.033 76.6256H190.556C190.411 78.0563 189.99 79.2501 189.294 80.2071L190.831 82.1211H188.83C188.656 81.8891 188.526 81.6958 188.439 81.5411C188.352 81.3864 188.328 81.2076 188.366 81.0046L188.163 80.9466C188.067 81.2753 187.709 81.5894 187.09 81.8891C186.52 82.1598 185.824 82.2951 185.002 82.2951ZM185.307 75.4221C185.858 75.1031 186.274 74.7938 186.554 74.4941C186.834 74.1944 186.974 73.8319 186.974 73.4066C186.974 73.0973 186.854 72.8218 186.612 72.5801C186.37 72.3384 186.056 72.2176 185.669 72.2176C185.263 72.2176 184.92 72.3433 184.64 72.5946C184.36 72.8459 184.219 73.1794 184.219 73.5951C184.219 74.2524 184.582 74.8614 185.307 75.4221ZM185.031 80.9176C185.437 80.9176 185.834 80.8499 186.22 80.7146C186.617 80.5696 186.965 80.3811 187.264 80.1491L184.901 77.2056C184.263 77.5729 183.78 77.9161 183.451 78.2351C183.132 78.5541 182.972 78.9408 182.972 79.3951C182.972 79.8688 183.166 80.2409 183.552 80.5116C183.939 80.7823 184.432 80.9176 185.031 80.9176ZM195.96 82.1211V71.0576H197.671V82.1211H195.96ZM199.493 74.0446H201.088V74.4361C201.088 74.5811 201.073 74.7019 201.044 74.7986C201.015 74.8856 200.967 74.9774 200.899 75.0741L201.102 75.2046C201.431 74.7309 201.774 74.3926 202.132 74.1896C202.49 73.9866 202.905 73.8851 203.379 73.8851C204.587 73.8851 205.404 74.3201 205.829 75.1901C205.994 75.5091 206.095 75.8378 206.134 76.1761C206.173 76.5048 206.192 76.9011 206.192 77.3651V82.1211H204.597V77.3506C204.597 76.5289 204.457 75.9586 204.176 75.6396C203.915 75.3689 203.538 75.2336 203.045 75.2336C202.456 75.2336 202.001 75.4173 201.682 75.7846C201.47 76.0166 201.315 76.3308 201.218 76.7271C201.131 77.1234 201.088 77.6599 201.088 78.3366V82.1211H199.493V74.0446ZM207.828 74.0446H209.423V74.4361C209.423 74.5811 209.409 74.7019 209.38 74.7986C209.351 74.8856 209.302 74.9774 209.235 75.0741L209.438 75.2046C209.766 74.7309 210.109 74.3926 210.467 74.1896C210.825 73.9866 211.24 73.8851 211.714 73.8851C212.922 73.8851 213.739 74.3201 214.165 75.1901C214.329 75.5091 214.43 75.8378 214.469 76.1761C214.508 76.5048 214.527 76.9011 214.527 77.3651V82.1211H212.932V77.3506C212.932 76.5289 212.792 75.9586 212.512 75.6396C212.251 75.3689 211.874 75.2336 211.381 75.2336C210.791 75.2336 210.337 75.4173 210.018 75.7846C209.805 76.0166 209.65 76.3308 209.554 76.7271C209.467 77.1234 209.423 77.6599 209.423 78.3366V82.1211H207.828V74.0446ZM219.875 82.2806C219.092 82.2806 218.392 82.1018 217.773 81.7441C217.164 81.3864 216.685 80.8886 216.337 80.2506C215.999 79.6029 215.83 78.8683 215.83 78.0466C215.83 77.2443 215.999 76.5289 216.337 75.9006C216.685 75.2723 217.164 74.7793 217.773 74.4216C218.392 74.0639 219.092 73.8851 219.875 73.8851C220.658 73.8851 221.354 74.0639 221.963 74.4216C222.582 74.7793 223.061 75.2723 223.399 75.9006C223.747 76.5289 223.921 77.2443 223.921 78.0466C223.921 78.8586 223.752 79.5884 223.413 80.2361C223.075 80.8741 222.597 81.3768 221.978 81.7441C221.369 82.1018 220.668 82.2806 219.875 82.2806ZM219.875 80.8886C220.339 80.8886 220.755 80.7678 221.122 80.5261C221.49 80.2844 221.775 79.9461 221.978 79.5111C222.191 79.0761 222.297 78.5879 222.297 78.0466C222.297 77.5246 222.191 77.0558 221.978 76.6401C221.775 76.2148 221.49 75.8813 221.122 75.6396C220.755 75.3979 220.339 75.2771 219.875 75.2771C219.411 75.2771 218.996 75.3979 218.628 75.6396C218.261 75.8716 217.971 76.2003 217.758 76.6256C217.555 77.0413 217.454 77.5149 217.454 78.0466C217.454 78.5976 217.555 79.0906 217.758 79.5256C217.971 79.9509 218.261 80.2844 218.628 80.5261C218.996 80.7678 219.411 80.8886 219.875 80.8886ZM224.397 74.0446H226.122L227.63 78.4526C227.707 78.6749 227.765 78.8924 227.804 79.1051C227.843 79.3178 227.872 79.4966 227.891 79.6416C227.91 79.7866 227.925 79.9026 227.935 79.9896H228.109C228.118 79.9316 228.133 79.8011 228.152 79.5981C228.171 79.3854 228.2 79.1873 228.239 79.0036C228.278 78.8199 228.331 78.6363 228.399 78.4526L229.936 74.0446H231.661L228.66 82.1211H227.369L224.397 74.0446ZM234.757 82.2806C233.964 82.2806 233.326 82.0728 232.843 81.6571C232.36 81.2318 232.118 80.6566 232.118 79.9316C232.118 79.1873 232.408 78.6024 232.988 78.1771C233.423 77.8581 234.047 77.6213 234.859 77.4666L237.498 76.9591C237.498 76.4178 237.348 75.9876 237.048 75.6686C236.729 75.3496 236.304 75.1901 235.772 75.1901C235.337 75.1901 234.955 75.3158 234.627 75.5671C234.308 75.8088 234.105 76.1374 234.018 76.5531H232.437C232.572 75.7024 232.954 75.0451 233.583 74.5811C234.211 74.1171 234.946 73.8851 235.787 73.8851C236.26 73.8851 236.705 73.9576 237.121 74.1026C237.546 74.2379 237.904 74.4409 238.194 74.7116C238.58 75.0693 238.822 75.4898 238.919 75.9731C239.025 76.4564 239.078 77.0123 239.078 77.6406V82.1211H237.483V81.8166C237.483 81.6136 237.541 81.3478 237.657 81.0191L237.454 80.9176C237.241 81.2849 236.966 81.5846 236.628 81.8166C236.183 82.1259 235.559 82.2806 234.757 82.2806ZM235.076 80.9611C235.501 80.9611 235.888 80.8741 236.236 80.7001C236.632 80.5068 236.927 80.2409 237.121 79.9026C237.227 79.7189 237.304 79.5498 237.353 79.3951C237.401 79.2308 237.454 79.0133 237.512 78.7426C237.541 78.6169 237.58 78.5251 237.628 78.4671C237.676 78.3994 237.744 78.3608 237.831 78.3511L237.788 78.1191L236.106 78.4671L235.236 78.6266C234.675 78.7426 234.269 78.9166 234.018 79.1486C233.815 79.3516 233.713 79.5981 233.713 79.8881C233.713 80.2264 233.834 80.4923 234.076 80.6856C234.327 80.8693 234.66 80.9611 235.076 80.9611ZM243.254 82.1211C242.625 82.1211 242.152 81.9761 241.833 81.6861C241.514 81.3961 241.354 80.9079 241.354 80.2216V75.3786H240.107V74.0446H241.354V71.0576H242.949V74.0446H244.631V75.3786H242.949V79.8011C242.949 80.1394 242.998 80.3859 243.094 80.5406C243.191 80.6953 243.413 80.7726 243.761 80.7726H244.617V82.1211H243.254ZM245.879 82.1211V74.0446H247.474V82.1211H245.879ZM246.677 72.9136C246.387 72.9136 246.135 72.8169 245.923 72.6236C245.71 72.4303 245.604 72.1886 245.604 71.8986C245.604 71.6086 245.71 71.3669 245.923 71.1736C246.135 70.9803 246.387 70.8836 246.677 70.8836C246.976 70.8836 247.228 70.9803 247.431 71.1736C247.643 71.3669 247.75 71.6086 247.75 71.8986C247.75 72.1886 247.643 72.4303 247.431 72.6236C247.228 72.8169 246.976 72.9136 246.677 72.9136ZM252.886 82.2806C252.103 82.2806 251.402 82.1018 250.783 81.7441C250.174 81.3864 249.696 80.8886 249.348 80.2506C249.009 79.6029 248.84 78.8683 248.84 78.0466C248.84 77.2443 249.009 76.5289 249.348 75.9006C249.696 75.2723 250.174 74.7793 250.783 74.4216C251.402 74.0639 252.103 73.8851 252.886 73.8851C253.669 73.8851 254.365 74.0639 254.974 74.4216C255.592 74.7793 256.071 75.2723 256.409 75.9006C256.757 76.5289 256.931 77.2443 256.931 78.0466C256.931 78.8586 256.762 79.5884 256.424 80.2361C256.085 80.8741 255.607 81.3768 254.988 81.7441C254.379 82.1018 253.678 82.2806 252.886 82.2806ZM252.886 80.8886C253.35 80.8886 253.765 80.7678 254.133 80.5261C254.5 80.2844 254.785 79.9461 254.988 79.5111C255.201 79.0761 255.307 78.5879 255.307 78.0466C255.307 77.5246 255.201 77.0558 254.988 76.6401C254.785 76.2148 254.5 75.8813 254.133 75.6396C253.765 75.3979 253.35 75.2771 252.886 75.2771C252.422 75.2771 252.006 75.3979 251.639 75.6396C251.271 75.8716 250.981 76.2003 250.769 76.6256C250.566 77.0413 250.464 77.5149 250.464 78.0466C250.464 78.5976 250.566 79.0906 250.769 79.5256C250.981 79.9509 251.271 80.2844 251.639 80.5261C252.006 80.7678 252.422 80.8886 252.886 80.8886ZM258.302 74.0446H259.897V74.4361C259.897 74.5811 259.882 74.7019 259.853 74.7986C259.824 74.8856 259.776 74.9774 259.708 75.0741L259.911 75.2046C260.24 74.7309 260.583 74.3926 260.941 74.1896C261.298 73.9866 261.714 73.8851 262.188 73.8851C263.396 73.8851 264.213 74.3201 264.638 75.1901C264.803 75.5091 264.904 75.8378 264.943 76.1761C264.981 76.5048 265.001 76.9011 265.001 77.3651V82.1211H263.406V77.3506C263.406 76.5289 263.266 75.9586 262.985 75.6396C262.724 75.3689 262.347 75.2336 261.854 75.2336C261.265 75.2336 260.81 75.4173 260.491 75.7846C260.279 76.0166 260.124 76.3308 260.027 76.7271C259.94 77.1234 259.897 77.6599 259.897 78.3366V82.1211H258.302V74.0446ZM147.016 101.121V90.0576H148.727V101.121H147.016ZM150.549 93.0446H152.144V93.4361C152.144 93.5811 152.129 93.7019 152.1 93.7986C152.071 93.8856 152.023 93.9774 151.955 94.0741L152.158 94.2046C152.487 93.7309 152.83 93.3926 153.188 93.1896C153.545 92.9866 153.961 92.8851 154.435 92.8851C155.643 92.8851 156.46 93.3201 156.885 94.1901C157.049 94.5091 157.151 94.8378 157.19 95.1761C157.228 95.5048 157.248 95.9011 157.248 96.3651V101.121H155.653V96.3506C155.653 95.5289 155.512 94.9586 155.232 94.6396C154.971 94.3689 154.594 94.2336 154.101 94.2336C153.511 94.2336 153.057 94.4173 152.738 94.7846C152.525 95.0166 152.371 95.3308 152.274 95.7271C152.187 96.1234 152.144 96.6599 152.144 97.3366V101.121H150.549V93.0446ZM158.031 93.0446H159.757L161.265 97.4526C161.342 97.6749 161.4 97.8924 161.439 98.1051C161.478 98.3178 161.507 98.4966 161.526 98.6416C161.545 98.7866 161.56 98.9026 161.569 98.9896H161.743C161.753 98.9316 161.768 98.8011 161.787 98.5981C161.806 98.3854 161.835 98.1873 161.874 98.0036C161.913 97.8199 161.966 97.6363 162.033 97.4526L163.57 93.0446H165.296L162.294 101.121H161.004L158.031 93.0446ZM169.783 101.281C169 101.281 168.304 101.102 167.695 100.744C167.086 100.377 166.613 99.8789 166.274 99.2506C165.936 98.6126 165.767 97.9021 165.767 97.1191C165.767 96.3844 165.917 95.6933 166.216 95.0456C166.526 94.3979 166.98 93.8759 167.579 93.4796C168.179 93.0833 168.899 92.8851 169.74 92.8851C170.455 92.8851 171.113 93.0398 171.712 93.3491C172.321 93.6584 172.809 94.1224 173.176 94.7411C173.544 95.3501 173.727 96.0944 173.727 96.9741V97.4091H168.275C167.802 97.4091 167.463 97.3946 167.26 97.3656L167.202 97.5976C167.289 97.6169 167.347 97.6556 167.376 97.7136C167.415 97.7619 167.454 97.8393 167.492 97.9456C167.512 98.0229 167.555 98.1341 167.623 98.2791C167.816 98.7721 168.106 99.1636 168.493 99.4536C168.88 99.7436 169.319 99.8886 169.812 99.8886C170.325 99.8886 170.765 99.7581 171.132 99.4971C171.499 99.2264 171.765 98.8833 171.929 98.4676H173.597C173.326 99.2989 172.867 99.9756 172.219 100.498C171.581 101.02 170.769 101.281 169.783 101.281ZM167.463 96.3651C167.599 96.2781 167.724 96.2153 167.84 96.1766C167.956 96.1379 168.087 96.1186 168.232 96.1186H171.291C171.456 96.1186 171.596 96.1379 171.712 96.1766C171.838 96.2153 171.973 96.2781 172.118 96.3651L172.263 96.1766C172.176 96.1186 172.118 96.0703 172.089 96.0316C172.06 95.9833 172.036 95.9204 172.016 95.8431C171.997 95.7078 171.934 95.5434 171.828 95.3501C171.635 94.9828 171.354 94.7024 170.987 94.5091C170.629 94.3061 170.233 94.2046 169.798 94.2046C169.344 94.2046 168.942 94.3061 168.594 94.5091C168.246 94.7024 167.971 94.9828 167.768 95.3501C167.681 95.4951 167.613 95.6594 167.565 95.8431C167.546 95.9204 167.521 95.9833 167.492 96.0316C167.473 96.0799 167.42 96.1283 167.333 96.1766L167.463 96.3651ZM178.466 101.281C177.451 101.281 176.6 101.039 175.914 100.556C175.237 100.063 174.831 99.3666 174.696 98.4676H176.305C176.421 98.9413 176.658 99.3086 177.016 99.5696C177.383 99.8306 177.866 99.9611 178.466 99.9611C178.959 99.9611 179.355 99.8693 179.655 99.6856C179.954 99.4923 180.104 99.2216 180.104 98.8736C180.104 98.6029 180.012 98.3903 179.829 98.2356C179.645 98.0713 179.413 97.9456 179.133 97.8586C178.852 97.7716 178.48 97.6798 178.016 97.5831C177.378 97.4574 176.861 97.3269 176.465 97.1916C176.068 97.0563 175.73 96.8339 175.45 96.5246C175.169 96.2153 175.029 95.7899 175.029 95.2486C175.029 94.4849 175.314 93.9001 175.885 93.4941C176.455 93.0881 177.18 92.8851 178.06 92.8851C178.968 92.8851 179.727 93.1219 180.336 93.5956C180.945 94.0596 181.322 94.7073 181.467 95.5386H179.974C179.858 95.0843 179.63 94.7459 179.292 94.5236C178.954 94.3013 178.543 94.1901 178.06 94.1901C177.596 94.1901 177.233 94.2771 176.972 94.4511C176.711 94.6251 176.581 94.8619 176.581 95.1616C176.581 95.4033 176.668 95.5966 176.842 95.7416C177.016 95.8769 177.228 95.9833 177.48 96.0606C177.741 96.1379 178.103 96.2201 178.567 96.3071C179.224 96.4328 179.761 96.5681 180.177 96.7131C180.592 96.8484 180.945 97.0804 181.235 97.4091C181.535 97.7281 181.685 98.1728 181.685 98.7431C181.685 99.5164 181.399 100.135 180.829 100.599C180.259 101.053 179.471 101.281 178.466 101.281ZM185.564 101.121C184.935 101.121 184.462 100.976 184.143 100.686C183.824 100.396 183.664 99.9079 183.664 99.2216V94.3786H182.417V93.0446H183.664V90.0576H185.259V93.0446H186.941V94.3786H185.259V98.8011C185.259 99.1394 185.307 99.3859 185.404 99.5406C185.501 99.6953 185.723 99.7726 186.071 99.7726H186.927V101.121H185.564ZM191.717 101.281C190.934 101.281 190.233 101.102 189.615 100.744C189.006 100.386 188.527 99.8886 188.179 99.2506C187.841 98.6029 187.672 97.8683 187.672 97.0466C187.672 96.2443 187.841 95.5289 188.179 94.9006C188.527 94.2723 189.006 93.7793 189.615 93.4216C190.233 93.0639 190.934 92.8851 191.717 92.8851C192.5 92.8851 193.196 93.0639 193.805 93.4216C194.424 93.7793 194.902 94.2723 195.241 94.9006C195.589 95.5289 195.763 96.2443 195.763 97.0466C195.763 97.8586 195.593 98.5884 195.255 99.2361C194.917 99.8741 194.438 100.377 193.82 100.744C193.211 101.102 192.51 101.281 191.717 101.281ZM191.717 99.8886C192.181 99.8886 192.597 99.7678 192.964 99.5261C193.331 99.2844 193.617 98.9461 193.82 98.5111C194.032 98.0761 194.139 97.5879 194.139 97.0466C194.139 96.5246 194.032 96.0558 193.82 95.6401C193.617 95.2148 193.331 94.8813 192.964 94.6396C192.597 94.3979 192.181 94.2771 191.717 94.2771C191.253 94.2771 190.837 94.3979 190.47 94.6396C190.103 94.8716 189.813 95.2003 189.6 95.6256C189.397 96.0413 189.296 96.5149 189.296 97.0466C189.296 97.5976 189.397 98.0906 189.6 98.5256C189.813 98.9509 190.103 99.2844 190.47 99.5261C190.837 99.7678 191.253 99.8886 191.717 99.8886ZM197.133 93.0446H198.728V93.4361C198.728 93.5811 198.714 93.7019 198.685 93.7986C198.656 93.8856 198.607 93.9774 198.54 94.0741L198.743 94.2046C199.052 93.7309 199.395 93.3926 199.772 93.1896C200.159 92.9866 200.633 92.8851 201.193 92.8851H201.353V94.4511H200.918C200.27 94.4511 199.767 94.6299 199.41 94.9876C198.955 95.4226 198.728 96.1379 198.728 97.1336V101.121H197.133V93.0446ZM206.245 90.0576H210.696C211.779 90.0576 212.634 90.3283 213.263 90.8696C213.891 91.4013 214.205 92.2036 214.205 93.2766C214.205 94.3013 213.886 95.1084 213.248 95.6981C212.61 96.2781 211.759 96.5681 210.696 96.5681H207.956V101.121H206.245V90.0576ZM210.464 95.0746C211.121 95.0746 211.624 94.9248 211.972 94.6251C212.33 94.3254 212.509 93.8904 212.509 93.3201C212.509 92.7691 212.33 92.3438 211.972 92.0441C211.624 91.7444 211.121 91.5946 210.464 91.5946H207.956V95.0746H210.464ZM217.269 101.121C216.641 101.121 216.167 100.976 215.848 100.686C215.529 100.396 215.37 99.9079 215.37 99.2216V90.0576H216.965V98.8301C216.965 99.1684 217.018 99.4101 217.124 99.5551C217.231 99.7001 217.448 99.7726 217.777 99.7726H218.226V101.121H217.269ZM221.678 101.281C220.885 101.281 220.247 101.073 219.764 100.657C219.281 100.232 219.039 99.6566 219.039 98.9316C219.039 98.1873 219.329 97.6024 219.909 97.1771C220.344 96.8581 220.968 96.6213 221.78 96.4666L224.419 95.9591C224.419 95.4178 224.269 94.9876 223.969 94.6686C223.65 94.3496 223.225 94.1901 222.693 94.1901C222.258 94.1901 221.876 94.3158 221.548 94.5671C221.229 94.8088 221.026 95.1374 220.939 95.5531H219.358C219.493 94.7024 219.875 94.0451 220.504 93.5811C221.132 93.1171 221.867 92.8851 222.708 92.8851C223.181 92.8851 223.626 92.9576 224.042 93.1026C224.467 93.2379 224.825 93.4409 225.115 93.7116C225.501 94.0693 225.743 94.4898 225.84 94.9731C225.946 95.4564 225.999 96.0123 225.999 96.6406V101.121H224.404V100.817C224.404 100.614 224.462 100.348 224.578 100.019L224.375 99.9176C224.162 100.285 223.887 100.585 223.549 100.817C223.104 101.126 222.48 101.281 221.678 101.281ZM221.997 99.9611C222.422 99.9611 222.809 99.8741 223.157 99.7001C223.553 99.5068 223.848 99.2409 224.042 98.9026C224.148 98.7189 224.225 98.5498 224.274 98.3951C224.322 98.2308 224.375 98.0133 224.433 97.7426C224.462 97.6169 224.501 97.5251 224.549 97.4671C224.597 97.3994 224.665 97.3608 224.752 97.3511L224.709 97.1191L223.027 97.4671L222.157 97.6266C221.596 97.7426 221.19 97.9166 220.939 98.1486C220.736 98.3516 220.634 98.5981 220.634 98.8881C220.634 99.2264 220.755 99.4923 220.997 99.6856C221.248 99.8693 221.581 99.9611 221.997 99.9611ZM230.175 101.121C229.547 101.121 229.073 100.976 228.754 100.686C228.435 100.396 228.275 99.9079 228.275 99.2216V94.3786H227.028V93.0446H228.275V90.0576H229.87V93.0446H231.552V94.3786H229.87V98.8011C229.87 99.1394 229.919 99.3859 230.015 99.5406C230.112 99.6953 230.334 99.7726 230.682 99.7726H231.538V101.121H230.175ZM233.482 94.3641H232.206V93.0446H233.482V92.1891C233.482 91.4931 233.666 90.9663 234.033 90.6086C234.4 90.2413 234.937 90.0576 235.642 90.0576H236.773V91.3771H236.019C235.71 91.3771 235.478 91.4593 235.323 91.6236C235.169 91.7879 235.091 92.0489 235.091 92.4066C235.091 92.5226 235.082 92.6289 235.062 92.7256C235.053 92.8126 235.014 92.9189 234.946 93.0446L235.091 93.1896C235.265 93.0929 235.478 93.0446 235.729 93.0446H236.773V94.3641H235.091V101.121H233.482V94.3641ZM241.265 101.281C240.482 101.281 239.781 101.102 239.163 100.744C238.554 100.386 238.075 99.8886 237.727 99.2506C237.389 98.6029 237.22 97.8683 237.22 97.0466C237.22 96.2443 237.389 95.5289 237.727 94.9006C238.075 94.2723 238.554 93.7793 239.163 93.4216C239.781 93.0639 240.482 92.8851 241.265 92.8851C242.048 92.8851 242.744 93.0639 243.353 93.4216C243.972 93.7793 244.45 94.2723 244.789 94.9006C245.137 95.5289 245.311 96.2443 245.311 97.0466C245.311 97.8586 245.141 98.5884 244.803 99.2361C244.465 99.8741 243.986 100.377 243.368 100.744C242.759 101.102 242.058 101.281 241.265 101.281ZM241.265 99.8886C241.729 99.8886 242.145 99.7678 242.512 99.5261C242.879 99.2844 243.165 98.9461 243.368 98.5111C243.58 98.0761 243.687 97.5879 243.687 97.0466C243.687 96.5246 243.58 96.0558 243.368 95.6401C243.165 95.2148 242.879 94.8813 242.512 94.6396C242.145 94.3979 241.729 94.2771 241.265 94.2771C240.801 94.2771 240.385 94.3979 240.018 94.6396C239.651 94.8716 239.361 95.2003 239.148 95.6256C238.945 96.0413 238.844 96.5149 238.844 97.0466C238.844 97.5976 238.945 98.0906 239.148 98.5256C239.361 98.9509 239.651 99.2844 240.018 99.5261C240.385 99.7678 240.801 99.8886 241.265 99.8886ZM246.681 93.0446H248.276V93.4361C248.276 93.5811 248.262 93.7019 248.233 93.7986C248.204 93.8856 248.156 93.9774 248.088 94.0741L248.291 94.2046C248.6 93.7309 248.943 93.3926 249.32 93.1896C249.707 92.9866 250.181 92.8851 250.741 92.8851H250.901V94.4511H250.466C249.818 94.4511 249.316 94.6299 248.958 94.9876C248.504 95.4226 248.276 96.1379 248.276 97.1336V101.121H246.681V93.0446ZM251.93 93.0446H253.525V93.4361C253.525 93.5811 253.51 93.7019 253.481 93.7986C253.452 93.8856 253.404 93.9774 253.336 94.0741L253.539 94.2046C253.868 93.7309 254.211 93.3926 254.569 93.1896C254.926 92.9866 255.342 92.8851 255.816 92.8851C256.328 92.8851 256.782 93.0059 257.179 93.2476C257.585 93.4796 257.831 93.8228 257.918 94.2771H258.107C258.484 93.3491 259.267 92.8851 260.456 92.8851C261.355 92.8851 262.026 93.1413 262.471 93.6536C262.916 94.1659 263.138 94.8958 263.138 95.8431V101.121H261.543V96.1041C261.543 95.4854 261.417 95.0214 261.166 94.7121C260.915 94.3931 260.557 94.2336 260.093 94.2336C259.619 94.2336 259.238 94.3883 258.948 94.6976C258.716 94.9489 258.551 95.2728 258.455 95.6691C258.368 96.0558 258.324 96.5536 258.324 97.1626V101.121H256.744V96.1041C256.744 95.5048 256.613 95.0456 256.352 94.7266C256.091 94.3979 255.729 94.2336 255.265 94.2336C254.801 94.2336 254.424 94.4028 254.134 94.7411C253.921 94.9634 253.766 95.2679 253.67 95.6546C253.573 96.0316 253.525 96.5343 253.525 97.1626V101.121H251.93V93.0446Z" fill="#727373"/>
<path d="M56.2977 315L60.2852 303.936H62.1847L66.1722 315H64.4032L63.5477 312.506H58.9367L58.0812 315H56.2977ZM63.0257 310.998L61.6192 306.894C61.5322 306.614 61.4645 306.377 61.4162 306.184C61.3775 305.991 61.3582 305.797 61.3582 305.604H61.1262C61.1262 305.797 61.102 305.991 61.0537 306.184C61.015 306.377 60.9522 306.614 60.8652 306.894L59.4587 310.998H63.0257ZM68.9439 315C68.3155 315 67.8419 314.855 67.5229 314.565C67.2039 314.275 67.0444 313.787 67.0444 313.1V303.936H68.6394V312.709C68.6394 313.047 68.6925 313.289 68.7989 313.434C68.9052 313.579 69.1227 313.651 69.4514 313.651H69.9009V315H68.9439ZM73.3161 315C72.6877 315 72.2141 314.855 71.8951 314.565C71.5761 314.275 71.4166 313.787 71.4166 313.1V308.257H70.1696V306.923H71.4166V303.936H73.0116V306.923H74.6936V308.257H73.0116V312.68C73.0116 313.018 73.0599 313.265 73.1566 313.419C73.2532 313.574 73.4756 313.651 73.8236 313.651H74.6791V315H73.3161ZM79.4405 315.16C78.6575 315.16 77.9615 314.981 77.3525 314.623C76.7435 314.256 76.2698 313.758 75.9315 313.129C75.5932 312.491 75.424 311.781 75.424 310.998C75.424 310.263 75.5738 309.572 75.8735 308.924C76.1828 308.277 76.6372 307.755 77.2365 307.358C77.8358 306.962 78.556 306.764 79.397 306.764C80.1123 306.764 80.7697 306.919 81.369 307.228C81.978 307.537 82.4662 308.001 82.8335 308.62C83.2008 309.229 83.3845 309.973 83.3845 310.853V311.288H77.9325C77.4588 311.288 77.1205 311.273 76.9175 311.244L76.8595 311.476C76.9465 311.496 77.0045 311.534 77.0335 311.592C77.0722 311.641 77.1108 311.718 77.1495 311.824C77.1688 311.902 77.2123 312.013 77.28 312.158C77.4733 312.651 77.7633 313.042 78.15 313.332C78.5367 313.622 78.9765 313.767 79.4695 313.767C79.9818 313.767 80.4217 313.637 80.789 313.376C81.1563 313.105 81.4222 312.762 81.5865 312.346H83.254C82.9833 313.178 82.5242 313.854 81.8765 314.376C81.2385 314.899 80.4265 315.16 79.4405 315.16ZM77.1205 310.244C77.2558 310.157 77.3815 310.094 77.4975 310.055C77.6135 310.017 77.744 309.997 77.889 309.997H80.9485C81.1128 309.997 81.253 310.017 81.369 310.055C81.4947 310.094 81.63 310.157 81.775 310.244L81.92 310.055C81.833 309.997 81.775 309.949 81.746 309.91C81.717 309.862 81.6928 309.799 81.6735 309.722C81.6542 309.587 81.5913 309.422 81.485 309.229C81.2917 308.862 81.0113 308.581 80.644 308.388C80.2863 308.185 79.89 308.083 79.455 308.083C79.0007 308.083 78.5995 308.185 78.2515 308.388C77.9035 308.581 77.628 308.862 77.425 309.229C77.338 309.374 77.2703 309.538 77.222 309.722C77.2027 309.799 77.1785 309.862 77.1495 309.91C77.1302 309.959 77.077 310.007 76.99 310.055L77.1205 310.244ZM84.7441 306.923H86.3391V307.315C86.3391 307.46 86.3246 307.581 86.2956 307.678C86.2666 307.764 86.2183 307.856 86.1506 307.953L86.3536 308.083C86.6629 307.61 87.0061 307.271 87.3831 307.068C87.7698 306.865 88.2434 306.764 88.8041 306.764H88.9636V308.33H88.5286C87.8809 308.33 87.3783 308.509 87.0206 308.866C86.5663 309.301 86.3391 310.017 86.3391 311.012V315H84.7441V306.923ZM89.9924 306.923H91.5874V307.315C91.5874 307.46 91.5729 307.581 91.5439 307.678C91.5149 307.764 91.4666 307.856 91.3989 307.953L91.6019 308.083C91.9306 307.61 92.2737 307.271 92.6314 307.068C92.9891 306.865 93.4047 306.764 93.8784 306.764C95.0867 306.764 95.9036 307.199 96.3289 308.069C96.4932 308.388 96.5947 308.717 96.6334 309.055C96.6721 309.384 96.6914 309.78 96.6914 310.244V315H95.0964V310.229C95.0964 309.408 94.9562 308.837 94.6759 308.518C94.4149 308.248 94.0379 308.112 93.5449 308.112C92.9552 308.112 92.5009 308.296 92.1819 308.663C91.9692 308.895 91.8146 309.21 91.7179 309.606C91.6309 310.002 91.5874 310.539 91.5874 311.215V315H89.9924V306.923ZM100.633 315.16C99.8405 315.16 99.2025 314.952 98.7192 314.536C98.2358 314.111 97.9942 313.535 97.9942 312.81C97.9942 312.066 98.2842 311.481 98.8642 311.056C99.2992 310.737 99.9227 310.5 100.735 310.345L103.374 309.838C103.374 309.297 103.224 308.866 102.924 308.547C102.605 308.228 102.18 308.069 101.648 308.069C101.213 308.069 100.831 308.195 100.503 308.446C100.184 308.688 99.9807 309.016 99.8937 309.432H98.3132C98.4485 308.581 98.8303 307.924 99.4587 307.46C100.087 306.996 100.822 306.764 101.663 306.764C102.136 306.764 102.581 306.836 102.997 306.981C103.422 307.117 103.78 307.32 104.07 307.59C104.456 307.948 104.698 308.369 104.795 308.852C104.901 309.335 104.954 309.891 104.954 310.519V315H103.359V314.695C103.359 314.492 103.417 314.227 103.533 313.898L103.33 313.796C103.117 314.164 102.842 314.463 102.504 314.695C102.059 315.005 101.435 315.16 100.633 315.16ZM100.952 313.84C101.377 313.84 101.764 313.753 102.112 313.579C102.508 313.386 102.803 313.12 102.997 312.781C103.103 312.598 103.18 312.429 103.229 312.274C103.277 312.11 103.33 311.892 103.388 311.621C103.417 311.496 103.456 311.404 103.504 311.346C103.552 311.278 103.62 311.24 103.707 311.23L103.664 310.998L101.982 311.346L101.112 311.505C100.551 311.621 100.145 311.795 99.8937 312.027C99.6907 312.23 99.5892 312.477 99.5892 312.767C99.5892 313.105 99.71 313.371 99.9517 313.564C100.203 313.748 100.536 313.84 100.952 313.84ZM109.13 315C108.502 315 108.028 314.855 107.709 314.565C107.39 314.275 107.23 313.787 107.23 313.1V308.257H105.983V306.923H107.23V303.936H108.825V306.923H110.507V308.257H108.825V312.68C108.825 313.018 108.874 313.265 108.97 313.419C109.067 313.574 109.289 313.651 109.637 313.651H110.493V315H109.13ZM111.755 315V306.923H113.35V315H111.755ZM112.553 305.792C112.263 305.792 112.012 305.696 111.799 305.502C111.586 305.309 111.48 305.067 111.48 304.777C111.48 304.487 111.586 304.246 111.799 304.052C112.012 303.859 112.263 303.762 112.553 303.762C112.853 303.762 113.104 303.859 113.307 304.052C113.52 304.246 113.626 304.487 113.626 304.777C113.626 305.067 113.52 305.309 113.307 305.502C113.104 305.696 112.853 305.792 112.553 305.792ZM114.325 306.923H116.05L117.558 311.331C117.636 311.554 117.694 311.771 117.732 311.984C117.771 312.197 117.8 312.375 117.819 312.52C117.838 312.665 117.853 312.781 117.863 312.869H118.037C118.046 312.81 118.061 312.68 118.08 312.477C118.1 312.264 118.129 312.066 118.167 311.882C118.206 311.699 118.259 311.515 118.327 311.331L119.864 306.923H121.589L118.588 315H117.297L114.325 306.923ZM126.077 315.16C125.294 315.16 124.598 314.981 123.989 314.623C123.38 314.256 122.906 313.758 122.568 313.129C122.229 312.491 122.06 311.781 122.06 310.998C122.06 310.263 122.21 309.572 122.51 308.924C122.819 308.277 123.273 307.755 123.873 307.358C124.472 306.962 125.192 306.764 126.033 306.764C126.749 306.764 127.406 306.919 128.005 307.228C128.614 307.537 129.102 308.001 129.47 308.62C129.837 309.229 130.021 309.973 130.021 310.853V311.288H124.569C124.095 311.288 123.757 311.273 123.554 311.244L123.496 311.476C123.583 311.496 123.641 311.534 123.67 311.592C123.708 311.641 123.747 311.718 123.786 311.824C123.805 311.902 123.849 312.013 123.916 312.158C124.11 312.651 124.4 313.042 124.786 313.332C125.173 313.622 125.613 313.767 126.106 313.767C126.618 313.767 127.058 313.637 127.425 313.376C127.793 313.105 128.058 312.762 128.223 312.346H129.89C129.62 313.178 129.16 313.854 128.513 314.376C127.875 314.899 127.063 315.16 126.077 315.16ZM123.757 310.244C123.892 310.157 124.018 310.094 124.134 310.055C124.25 310.017 124.38 309.997 124.525 309.997H127.585C127.749 309.997 127.889 310.017 128.005 310.055C128.131 310.094 128.266 310.157 128.411 310.244L128.556 310.055C128.469 309.997 128.411 309.949 128.382 309.91C128.353 309.862 128.329 309.799 128.31 309.722C128.29 309.587 128.228 309.422 128.121 309.229C127.928 308.862 127.648 308.581 127.28 308.388C126.923 308.185 126.526 308.083 126.091 308.083C125.637 308.083 125.236 308.185 124.888 308.388C124.54 308.581 124.264 308.862 124.061 309.229C123.974 309.374 123.907 309.538 123.858 309.722C123.839 309.799 123.815 309.862 123.786 309.91C123.766 309.959 123.713 310.007 123.626 310.055L123.757 310.244ZM134.431 303.936H136.229L138.375 311.781C138.472 312.1 138.535 312.346 138.564 312.52C138.602 312.694 138.622 312.878 138.622 313.071H138.854C138.854 312.878 138.868 312.694 138.897 312.52C138.926 312.346 138.984 312.1 139.071 311.781L141.13 303.936H143.088L145.147 311.781C145.234 312.1 145.292 312.346 145.321 312.52C145.35 312.694 145.364 312.878 145.364 313.071H145.611C145.611 312.878 145.625 312.699 145.654 312.535C145.693 312.361 145.756 312.11 145.843 311.781L147.989 303.936H149.787L146.698 315H144.465L142.348 307.068C142.271 306.711 142.232 306.353 142.232 305.995H142C142 306.372 141.957 306.73 141.87 307.068L139.753 315H137.52L134.431 303.936ZM153.815 315.16C153.032 315.16 152.336 314.981 151.727 314.623C151.118 314.256 150.645 313.758 150.306 313.129C149.968 312.491 149.799 311.781 149.799 310.998C149.799 310.263 149.949 309.572 150.248 308.924C150.558 308.277 151.012 307.755 151.611 307.358C152.211 306.962 152.931 306.764 153.772 306.764C154.487 306.764 155.144 306.919 155.744 307.228C156.353 307.537 156.841 308.001 157.208 308.62C157.576 309.229 157.759 309.973 157.759 310.853V311.288H152.307C151.834 311.288 151.495 311.273 151.292 311.244L151.234 311.476C151.321 311.496 151.379 311.534 151.408 311.592C151.447 311.641 151.486 311.718 151.524 311.824C151.544 311.902 151.587 312.013 151.655 312.158C151.848 312.651 152.138 313.042 152.525 313.332C152.911 313.622 153.351 313.767 153.844 313.767C154.357 313.767 154.796 313.637 155.164 313.376C155.531 313.105 155.797 312.762 155.961 312.346H157.629C157.358 313.178 156.899 313.854 156.251 314.376C155.613 314.899 154.801 315.16 153.815 315.16ZM151.495 310.244C151.631 310.157 151.756 310.094 151.872 310.055C151.988 310.017 152.119 309.997 152.264 309.997H155.323C155.488 309.997 155.628 310.017 155.744 310.055C155.869 310.094 156.005 310.157 156.15 310.244L156.295 310.055C156.208 309.997 156.15 309.949 156.121 309.91C156.092 309.862 156.068 309.799 156.048 309.722C156.029 309.587 155.966 309.422 155.86 309.229C155.666 308.862 155.386 308.581 155.019 308.388C154.661 308.185 154.265 308.083 153.83 308.083C153.375 308.083 152.974 308.185 152.626 308.388C152.278 308.581 152.003 308.862 151.8 309.229C151.713 309.374 151.645 309.538 151.597 309.722C151.577 309.799 151.553 309.862 151.524 309.91C151.505 309.959 151.452 310.007 151.365 310.055L151.495 310.244ZM161.424 315.16C160.632 315.16 159.994 314.952 159.51 314.536C159.027 314.111 158.785 313.535 158.785 312.81C158.785 312.066 159.075 311.481 159.655 311.056C160.09 310.737 160.714 310.5 161.526 310.345L164.165 309.838C164.165 309.297 164.015 308.866 163.715 308.547C163.396 308.228 162.971 308.069 162.439 308.069C162.004 308.069 161.623 308.195 161.294 308.446C160.975 308.688 160.772 309.016 160.685 309.432H159.104C159.24 308.581 159.622 307.924 160.25 307.46C160.878 306.996 161.613 306.764 162.454 306.764C162.928 306.764 163.372 306.836 163.788 306.981C164.213 307.117 164.571 307.32 164.861 307.59C165.248 307.948 165.489 308.369 165.586 308.852C165.692 309.335 165.745 309.891 165.745 310.519V315H164.15V314.695C164.15 314.492 164.208 314.227 164.324 313.898L164.121 313.796C163.909 314.164 163.633 314.463 163.295 314.695C162.85 315.005 162.227 315.16 161.424 315.16ZM161.743 313.84C162.169 313.84 162.555 313.753 162.903 313.579C163.3 313.386 163.595 313.12 163.788 312.781C163.894 312.598 163.972 312.429 164.02 312.274C164.068 312.11 164.121 311.892 164.179 311.621C164.208 311.496 164.247 311.404 164.295 311.346C164.344 311.278 164.411 311.24 164.498 311.23L164.455 310.998L162.773 311.346L161.903 311.505C161.342 311.621 160.936 311.795 160.685 312.027C160.482 312.23 160.38 312.477 160.38 312.767C160.38 313.105 160.501 313.371 160.743 313.564C160.994 313.748 161.328 313.84 161.743 313.84ZM169.24 315C168.611 315 168.138 314.855 167.819 314.565C167.5 314.275 167.34 313.787 167.34 313.1V303.936H168.935V312.709C168.935 313.047 168.988 313.289 169.095 313.434C169.201 313.579 169.419 313.651 169.747 313.651H170.197V315H169.24ZM173.612 315C172.984 315 172.51 314.855 172.191 314.565C171.872 314.275 171.712 313.787 171.712 313.1V308.257H170.465V306.923H171.712V303.936H173.307V306.923H174.989V308.257H173.307V312.68C173.307 313.018 173.356 313.265 173.452 313.419C173.549 313.574 173.771 313.651 174.119 313.651H174.975V315H173.612ZM176.252 303.936H177.847V307.315C177.847 307.46 177.832 307.581 177.803 307.678C177.774 307.774 177.721 307.866 177.644 307.953L177.847 308.083C178.185 307.61 178.533 307.271 178.891 307.068C179.249 306.865 179.664 306.764 180.138 306.764C181.327 306.764 182.144 307.199 182.588 308.069C182.753 308.388 182.854 308.717 182.893 309.055C182.932 309.384 182.951 309.78 182.951 310.244V315H181.356V310.229C181.356 309.804 181.322 309.456 181.254 309.185C181.187 308.905 181.076 308.683 180.921 308.518C180.679 308.248 180.302 308.112 179.79 308.112C179.21 308.112 178.76 308.296 178.441 308.663C178.229 308.895 178.074 309.21 177.977 309.606C177.89 310.002 177.847 310.539 177.847 311.215V315H176.252V303.936ZM41.0029 322.936H43.9319L46.1649 330.52C46.2616 330.849 46.3341 331.143 46.3824 331.404C46.4308 331.665 46.4549 331.984 46.4549 332.361H46.6869C46.6869 331.984 46.7063 331.661 46.7449 331.39C46.7933 331.119 46.8658 330.829 46.9624 330.52L49.1954 322.936H52.1244V334H50.4134V325.923C50.4134 325.43 50.4424 324.899 50.5004 324.328L50.2684 324.299C50.1718 324.85 50.0413 325.392 49.8769 325.923L47.4119 334H45.7299L43.2359 325.923C43.0909 325.45 42.9701 324.908 42.8734 324.299L42.6414 324.328C42.6898 324.899 42.7139 325.43 42.7139 325.923V334H41.0029V322.936ZM56.2433 334.16C55.4507 334.16 54.8127 333.952 54.3293 333.536C53.846 333.111 53.6043 332.535 53.6043 331.81C53.6043 331.066 53.8943 330.481 54.4743 330.056C54.9093 329.737 55.5328 329.5 56.3448 329.345L58.9838 328.838C58.9838 328.297 58.834 327.866 58.5343 327.547C58.2153 327.228 57.79 327.069 57.2583 327.069C56.8233 327.069 56.4415 327.195 56.1128 327.446C55.7938 327.688 55.5908 328.016 55.5038 328.432H53.9233C54.0587 327.581 54.4405 326.924 55.0688 326.46C55.6972 325.996 56.4318 325.764 57.2728 325.764C57.7465 325.764 58.1912 325.836 58.6068 325.981C59.0322 326.117 59.3898 326.32 59.6798 326.59C60.0665 326.948 60.3082 327.369 60.4048 327.852C60.5112 328.335 60.5643 328.891 60.5643 329.519V334H58.9693V333.695C58.9693 333.492 59.0273 333.227 59.1433 332.898L58.9403 332.796C58.7277 333.164 58.4522 333.463 58.1138 333.695C57.6692 334.005 57.0457 334.16 56.2433 334.16ZM56.5623 332.84C56.9877 332.84 57.3743 332.753 57.7223 332.579C58.1187 332.386 58.4135 332.12 58.6068 331.781C58.7132 331.598 58.7905 331.429 58.8388 331.274C58.8872 331.11 58.9403 330.892 58.9983 330.621C59.0273 330.496 59.066 330.404 59.1143 330.346C59.1627 330.278 59.2303 330.24 59.3173 330.23L59.2738 329.998L57.5918 330.346L56.7218 330.505C56.1612 330.621 55.7552 330.795 55.5038 331.027C55.3008 331.23 55.1993 331.477 55.1993 331.767C55.1993 332.105 55.3202 332.371 55.5618 332.564C55.8132 332.748 56.1467 332.84 56.5623 332.84ZM62.1881 325.923H63.7831V326.315C63.7831 326.46 63.7686 326.581 63.7396 326.678C63.7106 326.764 63.6623 326.856 63.5946 326.953L63.7976 327.083C64.1263 326.61 64.4694 326.271 64.8271 326.068C65.1848 325.865 65.6004 325.764 66.0741 325.764C67.2824 325.764 68.0993 326.199 68.5246 327.069C68.6889 327.388 68.7904 327.717 68.8291 328.055C68.8678 328.384 68.8871 328.78 68.8871 329.244V334H67.2921V329.229C67.2921 328.408 67.1519 327.837 66.8716 327.518C66.6106 327.248 66.2336 327.112 65.7406 327.112C65.1509 327.112 64.6966 327.296 64.3776 327.663C64.1649 327.895 64.0103 328.21 63.9136 328.606C63.8266 329.002 63.7831 329.539 63.7831 330.215V334H62.1881V325.923ZM72.8288 334.16C72.0362 334.16 71.3982 333.952 70.9148 333.536C70.4315 333.111 70.1898 332.535 70.1898 331.81C70.1898 331.066 70.4798 330.481 71.0598 330.056C71.4948 329.737 72.1183 329.5 72.9303 329.345L75.5693 328.838C75.5693 328.297 75.4195 327.866 75.1198 327.547C74.8008 327.228 74.3755 327.069 73.8438 327.069C73.4088 327.069 73.027 327.195 72.6983 327.446C72.3793 327.688 72.1763 328.016 72.0893 328.432H70.5088C70.6442 327.581 71.026 326.924 71.6543 326.46C72.2827 325.996 73.0173 325.764 73.8583 325.764C74.332 325.764 74.7767 325.836 75.1923 325.981C75.6177 326.117 75.9753 326.32 76.2653 326.59C76.652 326.948 76.8937 327.369 76.9903 327.852C77.0967 328.335 77.1498 328.891 77.1498 329.519V334H75.5548V333.695C75.5548 333.492 75.6128 333.227 75.7288 332.898L75.5258 332.796C75.3132 333.164 75.0377 333.463 74.6993 333.695C74.2547 334.005 73.6312 334.16 72.8288 334.16ZM73.1478 332.84C73.5732 332.84 73.9598 332.753 74.3078 332.579C74.7042 332.386 74.999 332.12 75.1923 331.781C75.2987 331.598 75.376 331.429 75.4243 331.274C75.4727 331.11 75.5258 330.892 75.5838 330.621C75.6128 330.496 75.6515 330.404 75.6998 330.346C75.7482 330.278 75.8158 330.24 75.9028 330.23L75.8593 329.998L74.1773 330.346L73.3073 330.505C72.7467 330.621 72.3407 330.795 72.0893 331.027C71.8863 331.23 71.7848 331.477 71.7848 331.767C71.7848 332.105 71.9057 332.371 72.1473 332.564C72.3987 332.748 72.7322 332.84 73.1478 332.84ZM82.4131 337.132C81.4658 337.132 80.6538 336.934 79.9771 336.538C79.3004 336.141 78.8848 335.479 78.7301 334.551H80.3541C80.4798 334.986 80.7069 335.305 81.0356 335.508C81.3739 335.721 81.8283 335.827 82.3986 335.827C83.1236 335.827 83.6601 335.663 84.0081 335.334C84.3561 335.005 84.5301 334.541 84.5301 333.942V333.522C84.5301 333.357 84.5398 333.236 84.5591 333.159C84.5881 333.072 84.6461 332.98 84.7331 332.883L84.5301 332.738C84.1821 333.222 83.8244 333.565 83.4571 333.768C83.0898 333.971 82.6258 334.073 82.0651 334.073C81.3594 334.073 80.7359 333.898 80.1946 333.55C79.6533 333.193 79.2328 332.7 78.9331 332.071C78.6431 331.443 78.4981 330.733 78.4981 329.94C78.4981 329.128 78.6431 328.408 78.9331 327.779C79.2328 327.141 79.6533 326.648 80.1946 326.3C80.7359 325.943 81.3594 325.764 82.0651 325.764C82.6258 325.764 83.0898 325.865 83.4571 326.068C83.8244 326.271 84.1821 326.61 84.5301 327.083L84.7331 326.953C84.5978 326.779 84.5301 326.566 84.5301 326.315V325.923H86.1251V333.594C86.1251 334.87 85.7964 335.779 85.1391 336.32C84.4818 336.861 83.5731 337.132 82.4131 337.132ZM82.3551 332.68C82.7998 332.68 83.1961 332.564 83.5441 332.332C83.9018 332.091 84.1773 331.762 84.3706 331.346C84.5736 330.921 84.6751 330.443 84.6751 329.911C84.6751 329.389 84.5736 328.92 84.3706 328.504C84.1773 328.079 83.9018 327.75 83.5441 327.518C83.1961 327.277 82.7998 327.156 82.3551 327.156C81.6784 327.156 81.1323 327.417 80.7166 327.939C80.3009 328.461 80.0931 329.118 80.0931 329.911C80.0931 330.713 80.2961 331.375 80.7021 331.897C81.1178 332.419 81.6688 332.68 82.3551 332.68ZM91.514 334.16C90.731 334.16 90.035 333.981 89.426 333.623C88.817 333.256 88.3433 332.758 88.005 332.129C87.6667 331.491 87.4975 330.781 87.4975 329.998C87.4975 329.263 87.6473 328.572 87.947 327.924C88.2563 327.277 88.7107 326.755 89.31 326.358C89.9093 325.962 90.6295 325.764 91.4705 325.764C92.1858 325.764 92.8432 325.919 93.4425 326.228C94.0515 326.537 94.5397 327.001 94.907 327.62C95.2743 328.229 95.458 328.973 95.458 329.853V330.288H90.006C89.5323 330.288 89.194 330.273 88.991 330.244L88.933 330.476C89.02 330.496 89.078 330.534 89.107 330.592C89.1457 330.641 89.1843 330.718 89.223 330.824C89.2423 330.902 89.2858 331.013 89.3535 331.158C89.5468 331.651 89.8368 332.042 90.2235 332.332C90.6102 332.622 91.05 332.767 91.543 332.767C92.0553 332.767 92.4952 332.637 92.8625 332.376C93.2298 332.105 93.4957 331.762 93.66 331.346H95.3275C95.0568 332.178 94.5977 332.854 93.95 333.376C93.312 333.899 92.5 334.16 91.514 334.16ZM89.194 329.244C89.3293 329.157 89.455 329.094 89.571 329.055C89.687 329.017 89.8175 328.997 89.9625 328.997H93.022C93.1863 328.997 93.3265 329.017 93.4425 329.055C93.5682 329.094 93.7035 329.157 93.8485 329.244L93.9935 329.055C93.9065 328.997 93.8485 328.949 93.8195 328.91C93.7905 328.862 93.7663 328.799 93.747 328.722C93.7277 328.587 93.6648 328.422 93.5585 328.229C93.3652 327.862 93.0848 327.581 92.7175 327.388C92.3598 327.185 91.9635 327.083 91.5285 327.083C91.0742 327.083 90.673 327.185 90.325 327.388C89.977 327.581 89.7015 327.862 89.4985 328.229C89.4115 328.374 89.3438 328.538 89.2955 328.722C89.2762 328.799 89.252 328.862 89.223 328.91C89.2037 328.959 89.1505 329.007 89.0635 329.055L89.194 329.244ZM96.8176 325.923H98.4126V326.315C98.4126 326.46 98.3981 326.581 98.3691 326.678C98.3401 326.764 98.2918 326.856 98.2241 326.953L98.4271 327.083C98.7558 326.61 99.099 326.271 99.4566 326.068C99.8143 325.865 100.23 325.764 100.704 325.764C101.216 325.764 101.67 325.885 102.067 326.126C102.473 326.358 102.719 326.702 102.806 327.156H102.995C103.372 326.228 104.155 325.764 105.344 325.764C106.243 325.764 106.914 326.02 107.359 326.532C107.804 327.045 108.026 327.775 108.026 328.722V334H106.431V328.983C106.431 328.364 106.305 327.9 106.054 327.591C105.803 327.272 105.445 327.112 104.981 327.112C104.507 327.112 104.126 327.267 103.836 327.576C103.604 327.828 103.439 328.152 103.343 328.548C103.256 328.935 103.212 329.432 103.212 330.041V334H101.632V328.983C101.632 328.384 101.501 327.924 101.24 327.605C100.979 327.277 100.617 327.112 100.153 327.112C99.6886 327.112 99.3116 327.282 99.0216 327.62C98.809 327.842 98.6543 328.147 98.5576 328.533C98.461 328.91 98.4126 329.413 98.4126 330.041V334H96.8176V325.923ZM113.353 334.16C112.57 334.16 111.874 333.981 111.265 333.623C110.656 333.256 110.182 332.758 109.844 332.129C109.506 331.491 109.336 330.781 109.336 329.998C109.336 329.263 109.486 328.572 109.786 327.924C110.095 327.277 110.55 326.755 111.149 326.358C111.748 325.962 112.468 325.764 113.309 325.764C114.025 325.764 114.682 325.919 115.281 326.228C115.89 326.537 116.379 327.001 116.746 327.62C117.113 328.229 117.297 328.973 117.297 329.853V330.288H111.845C111.371 330.288 111.033 330.273 110.83 330.244L110.772 330.476C110.859 330.496 110.917 330.534 110.946 330.592C110.985 330.641 111.023 330.718 111.062 330.824C111.081 330.902 111.125 331.013 111.192 331.158C111.386 331.651 111.676 332.042 112.062 332.332C112.449 332.622 112.889 332.767 113.382 332.767C113.894 332.767 114.334 332.637 114.701 332.376C115.069 332.105 115.335 331.762 115.499 331.346H117.166C116.896 332.178 116.437 332.854 115.789 333.376C115.151 333.899 114.339 334.16 113.353 334.16ZM111.033 329.244C111.168 329.157 111.294 329.094 111.41 329.055C111.526 329.017 111.656 328.997 111.801 328.997H114.861C115.025 328.997 115.165 329.017 115.281 329.055C115.407 329.094 115.542 329.157 115.687 329.244L115.832 329.055C115.745 328.997 115.687 328.949 115.658 328.91C115.629 328.862 115.605 328.799 115.586 328.722C115.567 328.587 115.504 328.422 115.397 328.229C115.204 327.862 114.924 327.581 114.556 327.388C114.199 327.185 113.802 327.083 113.367 327.083C112.913 327.083 112.512 327.185 112.164 327.388C111.816 327.581 111.54 327.862 111.337 328.229C111.25 328.374 111.183 328.538 111.134 328.722C111.115 328.799 111.091 328.862 111.062 328.91C111.043 328.959 110.989 329.007 110.902 329.055L111.033 329.244ZM118.657 325.923H120.252V326.315C120.252 326.46 120.237 326.581 120.208 326.678C120.179 326.764 120.131 326.856 120.063 326.953L120.266 327.083C120.595 326.61 120.938 326.271 121.296 326.068C121.653 325.865 122.069 325.764 122.543 325.764C123.751 325.764 124.568 326.199 124.993 327.069C125.157 327.388 125.259 327.717 125.298 328.055C125.336 328.384 125.356 328.78 125.356 329.244V334H123.761V329.229C123.761 328.408 123.62 327.837 123.34 327.518C123.079 327.248 122.702 327.112 122.209 327.112C121.619 327.112 121.165 327.296 120.846 327.663C120.633 327.895 120.479 328.21 120.382 328.606C120.295 329.002 120.252 329.539 120.252 330.215V334H118.657V325.923ZM129.36 334C128.731 334 128.258 333.855 127.939 333.565C127.62 333.275 127.46 332.787 127.46 332.1V327.257H126.213V325.923H127.46V322.936H129.055V325.923H130.737V327.257H129.055V331.68C129.055 332.018 129.104 332.265 129.2 332.419C129.297 332.574 129.519 332.651 129.867 332.651H130.723V334H129.36ZM140.053 334.174C139.29 334.174 138.569 334.053 137.893 333.811C137.226 333.56 136.66 333.164 136.196 332.622C135.732 332.071 135.452 331.375 135.355 330.534H137.095C137.26 331.308 137.617 331.864 138.168 332.202C138.719 332.531 139.357 332.695 140.082 332.695C140.788 332.695 141.339 332.55 141.735 332.26C142.141 331.96 142.344 331.525 142.344 330.955C142.344 330.53 142.219 330.191 141.967 329.94C141.716 329.679 141.402 329.49 141.025 329.374C140.648 329.249 140.131 329.113 139.473 328.968C138.671 328.794 138.023 328.62 137.53 328.446C137.037 328.263 136.617 327.973 136.269 327.576C135.921 327.17 135.747 326.615 135.747 325.909C135.747 325.252 135.906 324.686 136.225 324.212C136.544 323.739 136.989 323.381 137.559 323.139C138.13 322.888 138.782 322.762 139.517 322.762C140.599 322.762 141.532 323.043 142.315 323.603C143.098 324.154 143.577 324.986 143.751 326.097H142.04C141.895 325.469 141.59 325.005 141.126 324.705C140.672 324.406 140.126 324.256 139.488 324.256C138.85 324.256 138.352 324.391 137.994 324.662C137.637 324.923 137.458 325.29 137.458 325.764C137.458 326.131 137.574 326.426 137.806 326.648C138.047 326.871 138.342 327.04 138.69 327.156C139.038 327.272 139.522 327.398 140.14 327.533C140.981 327.717 141.658 327.905 142.17 328.098C142.692 328.292 143.137 328.611 143.504 329.055C143.872 329.49 144.055 330.09 144.055 330.853C144.055 331.878 143.702 332.69 142.997 333.289C142.301 333.879 141.32 334.174 140.053 334.174ZM149.167 334.16C148.384 334.16 147.684 333.981 147.065 333.623C146.456 333.265 145.977 332.767 145.629 332.129C145.291 331.482 145.122 330.747 145.122 329.925C145.122 329.123 145.291 328.408 145.629 327.779C145.977 327.151 146.456 326.658 147.065 326.3C147.684 325.943 148.384 325.764 149.167 325.764C149.95 325.764 150.646 325.943 151.255 326.3C151.874 326.658 152.353 327.151 152.691 327.779C153.039 328.408 153.213 329.123 153.213 329.925C153.213 330.737 153.044 331.467 152.705 332.115C152.367 332.753 151.889 333.256 151.27 333.623C150.661 333.981 149.96 334.16 149.167 334.16ZM149.167 332.767C149.631 332.767 150.047 332.647 150.414 332.405C150.782 332.163 151.067 331.825 151.27 331.39C151.483 330.955 151.589 330.467 151.589 329.925C151.589 329.403 151.483 328.935 151.27 328.519C151.067 328.094 150.782 327.76 150.414 327.518C150.047 327.277 149.631 327.156 149.167 327.156C148.703 327.156 148.288 327.277 147.92 327.518C147.553 327.75 147.263 328.079 147.05 328.504C146.847 328.92 146.746 329.394 146.746 329.925C146.746 330.476 146.847 330.969 147.05 331.404C147.263 331.83 147.553 332.163 147.92 332.405C148.288 332.647 148.703 332.767 149.167 332.767ZM156.454 334C155.826 334 155.352 333.855 155.033 333.565C154.714 333.275 154.555 332.787 154.555 332.1V322.936H156.15V331.709C156.15 332.047 156.203 332.289 156.309 332.434C156.416 332.579 156.633 332.651 156.962 332.651H157.411V334H156.454ZM161.27 334.16C160.081 334.16 159.265 333.72 158.82 332.84C158.665 332.531 158.569 332.207 158.53 331.869C158.491 331.53 158.472 331.134 158.472 330.679V325.923H160.067V330.694C160.067 331.516 160.207 332.086 160.487 332.405C160.748 332.676 161.125 332.811 161.618 332.811C162.208 332.811 162.658 332.627 162.967 332.26C163.189 332.028 163.344 331.714 163.431 331.317C163.528 330.921 163.576 330.385 163.576 329.708V325.923H165.171V334H163.576V333.608C163.576 333.463 163.59 333.347 163.619 333.26C163.648 333.164 163.697 333.067 163.764 332.97L163.561 332.825C163.233 333.299 162.89 333.642 162.532 333.855C162.174 334.058 161.754 334.16 161.27 334.16ZM169.417 334C168.788 334 168.315 333.855 167.996 333.565C167.677 333.275 167.517 332.787 167.517 332.1V327.257H166.27V325.923H167.517V322.936H169.112V325.923H170.794V327.257H169.112V331.68C169.112 332.018 169.16 332.265 169.257 332.419C169.354 332.574 169.576 332.651 169.924 332.651H170.78V334H169.417ZM172.042 334V325.923H173.637V334H172.042ZM172.84 324.792C172.55 324.792 172.298 324.696 172.086 324.502C171.873 324.309 171.767 324.067 171.767 323.777C171.767 323.487 171.873 323.246 172.086 323.052C172.298 322.859 172.55 322.762 172.84 322.762C173.139 322.762 173.391 322.859 173.594 323.052C173.806 323.246 173.913 323.487 173.913 323.777C173.913 324.067 173.806 324.309 173.594 324.502C173.391 324.696 173.139 324.792 172.84 324.792ZM179.048 334.16C178.265 334.16 177.564 333.981 176.946 333.623C176.337 333.265 175.858 332.767 175.51 332.129C175.172 331.482 175.003 330.747 175.003 329.925C175.003 329.123 175.172 328.408 175.51 327.779C175.858 327.151 176.337 326.658 176.946 326.3C177.564 325.943 178.265 325.764 179.048 325.764C179.831 325.764 180.527 325.943 181.136 326.3C181.755 326.658 182.233 327.151 182.572 327.779C182.92 328.408 183.094 329.123 183.094 329.925C183.094 330.737 182.925 331.467 182.586 332.115C182.248 332.753 181.769 333.256 181.151 333.623C180.542 333.981 179.841 334.16 179.048 334.16ZM179.048 332.767C179.512 332.767 179.928 332.647 180.295 332.405C180.663 332.163 180.948 331.825 181.151 331.39C181.363 330.955 181.47 330.467 181.47 329.925C181.47 329.403 181.363 328.935 181.151 328.519C180.948 328.094 180.663 327.76 180.295 327.518C179.928 327.277 179.512 327.156 179.048 327.156C178.584 327.156 178.169 327.277 177.801 327.518C177.434 327.75 177.144 328.079 176.931 328.504C176.728 328.92 176.627 329.394 176.627 329.925C176.627 330.476 176.728 330.969 176.931 331.404C177.144 331.83 177.434 332.163 177.801 332.405C178.169 332.647 178.584 332.767 179.048 332.767ZM184.464 325.923H186.059V326.315C186.059 326.46 186.045 326.581 186.016 326.678C185.987 326.764 185.939 326.856 185.871 326.953L186.074 327.083C186.403 326.61 186.746 326.271 187.103 326.068C187.461 325.865 187.877 325.764 188.35 325.764C189.559 325.764 190.376 326.199 190.801 327.069C190.965 327.388 191.067 327.717 191.105 328.055C191.144 328.384 191.163 328.78 191.163 329.244V334H189.568V329.229C189.568 328.408 189.428 327.837 189.148 327.518C188.887 327.248 188.51 327.112 188.017 327.112C187.427 327.112 186.973 327.296 186.654 327.663C186.441 327.895 186.287 328.21 186.19 328.606C186.103 329.002 186.059 329.539 186.059 330.215V334H184.464V325.923ZM196.178 334.16C195.163 334.16 194.313 333.918 193.626 333.434C192.95 332.941 192.544 332.245 192.408 331.346H194.018C194.134 331.82 194.371 332.187 194.728 332.448C195.096 332.709 195.579 332.84 196.178 332.84C196.671 332.84 197.068 332.748 197.367 332.564C197.667 332.371 197.817 332.1 197.817 331.752C197.817 331.482 197.725 331.269 197.541 331.114C197.358 330.95 197.126 330.824 196.845 330.737C196.565 330.65 196.193 330.559 195.729 330.462C195.091 330.336 194.574 330.206 194.177 330.07C193.781 329.935 193.443 329.713 193.162 329.403C192.882 329.094 192.742 328.669 192.742 328.127C192.742 327.364 193.027 326.779 193.597 326.373C194.168 325.967 194.893 325.764 195.772 325.764C196.681 325.764 197.44 326.001 198.049 326.474C198.658 326.938 199.035 327.586 199.18 328.417H197.686C197.57 327.963 197.343 327.625 197.005 327.402C196.666 327.18 196.256 327.069 195.772 327.069C195.308 327.069 194.946 327.156 194.685 327.33C194.424 327.504 194.293 327.741 194.293 328.04C194.293 328.282 194.38 328.475 194.554 328.62C194.728 328.756 194.941 328.862 195.192 328.939C195.453 329.017 195.816 329.099 196.28 329.186C196.937 329.312 197.474 329.447 197.889 329.592C198.305 329.727 198.658 329.959 198.948 330.288C199.247 330.607 199.397 331.052 199.397 331.622C199.397 332.395 199.112 333.014 198.542 333.478C197.971 333.932 197.184 334.16 196.178 334.16Z" fill="#727373"/>
<path d="M315.603 272V260.936H322.882V262.473H317.314V265.692H322.259V267.215H317.314V270.463H322.882V272H315.603ZM324.248 263.923H325.843V264.315C325.843 264.46 325.828 264.581 325.799 264.678C325.77 264.764 325.722 264.856 325.654 264.953L325.857 265.083C326.186 264.61 326.529 264.271 326.887 264.068C327.244 263.865 327.66 263.764 328.134 263.764C329.342 263.764 330.159 264.199 330.584 265.069C330.748 265.388 330.85 265.717 330.889 266.055C330.927 266.384 330.947 266.78 330.947 267.244V272H329.352V267.229C329.352 266.408 329.211 265.837 328.931 265.518C328.67 265.248 328.293 265.112 327.8 265.112C327.21 265.112 326.756 265.296 326.437 265.663C326.224 265.895 326.07 266.21 325.973 266.606C325.886 267.002 325.843 267.539 325.843 268.215V272H324.248V263.923ZM334.951 272C334.322 272 333.849 271.855 333.53 271.565C333.211 271.275 333.051 270.787 333.051 270.1V265.257H331.804V263.923H333.051V260.936H334.646V263.923H336.328V265.257H334.646V269.68C334.646 270.018 334.695 270.265 334.791 270.419C334.888 270.574 335.11 270.651 335.458 270.651H336.314V272H334.951ZM341.075 272.16C340.292 272.16 339.596 271.981 338.987 271.623C338.378 271.256 337.904 270.758 337.566 270.129C337.228 269.491 337.059 268.781 337.059 267.998C337.059 267.263 337.208 266.572 337.508 265.924C337.817 265.277 338.272 264.755 338.871 264.358C339.47 263.962 340.191 263.764 341.032 263.764C341.747 263.764 342.404 263.919 343.004 264.228C343.613 264.537 344.101 265.001 344.468 265.62C344.835 266.229 345.019 266.973 345.019 267.853V268.288H339.567C339.093 268.288 338.755 268.273 338.552 268.244L338.494 268.476C338.581 268.496 338.639 268.534 338.668 268.592C338.707 268.641 338.745 268.718 338.784 268.824C338.803 268.902 338.847 269.013 338.915 269.158C339.108 269.651 339.398 270.042 339.785 270.332C340.171 270.622 340.611 270.767 341.104 270.767C341.616 270.767 342.056 270.637 342.424 270.376C342.791 270.105 343.057 269.762 343.221 269.346H344.889C344.618 270.178 344.159 270.854 343.511 271.376C342.873 271.899 342.061 272.16 341.075 272.16ZM338.755 267.244C338.89 267.157 339.016 267.094 339.132 267.055C339.248 267.017 339.379 266.997 339.524 266.997H342.583C342.747 266.997 342.888 267.017 343.004 267.055C343.129 267.094 343.265 267.157 343.41 267.244L343.555 267.055C343.468 266.997 343.41 266.949 343.381 266.91C343.352 266.862 343.327 266.799 343.308 266.722C343.289 266.587 343.226 266.422 343.12 266.229C342.926 265.862 342.646 265.581 342.279 265.388C341.921 265.185 341.525 265.083 341.09 265.083C340.635 265.083 340.234 265.185 339.886 265.388C339.538 265.581 339.263 265.862 339.06 266.229C338.973 266.374 338.905 266.538 338.857 266.722C338.837 266.799 338.813 266.862 338.784 266.91C338.765 266.959 338.712 267.007 338.625 267.055L338.755 267.244ZM346.379 263.923H347.974V264.315C347.974 264.46 347.959 264.581 347.93 264.678C347.901 264.764 347.853 264.856 347.785 264.953L347.988 265.083C348.298 264.61 348.641 264.271 349.018 264.068C349.404 263.865 349.878 263.764 350.439 263.764H350.598V265.33H350.163C349.516 265.33 349.013 265.509 348.655 265.866C348.201 266.301 347.974 267.017 347.974 268.012V272H346.379V263.923ZM355.702 263.764C356.407 263.764 357.031 263.943 357.572 264.3C358.113 264.648 358.529 265.141 358.819 265.779C359.119 266.417 359.269 267.142 359.269 267.954C359.269 268.776 359.119 269.506 358.819 270.144C358.529 270.782 358.113 271.28 357.572 271.637C357.031 271.986 356.407 272.16 355.702 272.16C355.151 272.16 354.687 272.058 354.31 271.855C353.942 271.652 353.585 271.309 353.237 270.825L353.034 270.97C353.111 271.057 353.164 271.149 353.193 271.246C353.222 271.343 353.237 271.463 353.237 271.608V274.987H351.642V263.923H353.237V264.315C353.237 264.46 353.222 264.581 353.193 264.678C353.164 264.764 353.111 264.856 353.034 264.953L353.237 265.098C353.585 264.615 353.942 264.271 354.31 264.068C354.687 263.865 355.151 263.764 355.702 263.764ZM355.412 265.156C354.967 265.156 354.566 265.277 354.208 265.518C353.86 265.75 353.585 266.079 353.382 266.504C353.188 266.93 353.092 267.413 353.092 267.954C353.092 268.496 353.188 268.984 353.382 269.419C353.585 269.844 353.86 270.178 354.208 270.419C354.566 270.651 354.967 270.767 355.412 270.767C356.098 270.767 356.644 270.506 357.05 269.984C357.466 269.453 357.674 268.776 357.674 267.954C357.674 267.133 357.466 266.461 357.05 265.939C356.644 265.417 356.098 265.156 355.412 265.156ZM360.67 263.923H362.265V264.315C362.265 264.46 362.251 264.581 362.222 264.678C362.193 264.764 362.144 264.856 362.077 264.953L362.28 265.083C362.589 264.61 362.932 264.271 363.309 264.068C363.696 263.865 364.17 263.764 364.73 263.764H364.89V265.33H364.455C363.807 265.33 363.304 265.509 362.947 265.866C362.492 266.301 362.265 267.017 362.265 268.012V272H360.67V263.923ZM365.919 272V263.923H367.514V272H365.919ZM366.716 262.792C366.426 262.792 366.175 262.696 365.962 262.502C365.749 262.309 365.643 262.067 365.643 261.777C365.643 261.487 365.749 261.246 365.962 261.052C366.175 260.859 366.426 260.762 366.716 260.762C367.016 260.762 367.267 260.859 367.47 261.052C367.683 261.246 367.789 261.487 367.789 261.777C367.789 262.067 367.683 262.309 367.47 262.502C367.267 262.696 367.016 262.792 366.716 262.792ZM372.591 272.16C371.576 272.16 370.726 271.918 370.039 271.434C369.363 270.941 368.957 270.245 368.821 269.346H370.431C370.547 269.82 370.784 270.187 371.141 270.448C371.509 270.709 371.992 270.84 372.591 270.84C373.084 270.84 373.481 270.748 373.78 270.564C374.08 270.371 374.23 270.1 374.23 269.752C374.23 269.482 374.138 269.269 373.954 269.114C373.771 268.95 373.539 268.824 373.258 268.737C372.978 268.65 372.606 268.559 372.142 268.462C371.504 268.336 370.987 268.206 370.59 268.07C370.194 267.935 369.856 267.713 369.575 267.403C369.295 267.094 369.155 266.669 369.155 266.127C369.155 265.364 369.44 264.779 370.01 264.373C370.581 263.967 371.306 263.764 372.185 263.764C373.094 263.764 373.853 264.001 374.462 264.474C375.071 264.938 375.448 265.586 375.593 266.417H374.099C373.983 265.963 373.756 265.625 373.418 265.402C373.08 265.18 372.669 265.069 372.185 265.069C371.721 265.069 371.359 265.156 371.098 265.33C370.837 265.504 370.706 265.741 370.706 266.04C370.706 266.282 370.793 266.475 370.967 266.62C371.141 266.756 371.354 266.862 371.605 266.939C371.866 267.017 372.229 267.099 372.693 267.186C373.35 267.312 373.887 267.447 374.302 267.592C374.718 267.727 375.071 267.959 375.361 268.288C375.661 268.607 375.81 269.052 375.81 269.622C375.81 270.395 375.525 271.014 374.955 271.478C374.385 271.932 373.597 272.16 372.591 272.16ZM380.891 272.16C380.108 272.16 379.412 271.981 378.803 271.623C378.194 271.256 377.721 270.758 377.382 270.129C377.044 269.491 376.875 268.781 376.875 267.998C376.875 267.263 377.025 266.572 377.324 265.924C377.634 265.277 378.088 264.755 378.687 264.358C379.287 263.962 380.007 263.764 380.848 263.764C381.563 263.764 382.22 263.919 382.82 264.228C383.429 264.537 383.917 265.001 384.284 265.62C384.652 266.229 384.835 266.973 384.835 267.853V268.288H379.383C378.91 268.288 378.571 268.273 378.368 268.244L378.31 268.476C378.397 268.496 378.455 268.534 378.484 268.592C378.523 268.641 378.562 268.718 378.6 268.824C378.62 268.902 378.663 269.013 378.731 269.158C378.924 269.651 379.214 270.042 379.601 270.332C379.987 270.622 380.427 270.767 380.92 270.767C381.433 270.767 381.872 270.637 382.24 270.376C382.607 270.105 382.873 269.762 383.037 269.346H384.705C384.434 270.178 383.975 270.854 383.327 271.376C382.689 271.899 381.877 272.16 380.891 272.16ZM378.571 267.244C378.707 267.157 378.832 267.094 378.948 267.055C379.064 267.017 379.195 266.997 379.34 266.997H382.399C382.564 266.997 382.704 267.017 382.82 267.055C382.945 267.094 383.081 267.157 383.226 267.244L383.371 267.055C383.284 266.997 383.226 266.949 383.197 266.91C383.168 266.862 383.144 266.799 383.124 266.722C383.105 266.587 383.042 266.422 382.936 266.229C382.742 265.862 382.462 265.581 382.095 265.388C381.737 265.185 381.341 265.083 380.906 265.083C380.451 265.083 380.05 265.185 379.702 265.388C379.354 265.581 379.079 265.862 378.876 266.229C378.789 266.374 378.721 266.538 378.673 266.722C378.653 266.799 378.629 266.862 378.6 266.91C378.581 266.959 378.528 267.007 378.441 267.055L378.571 267.244ZM315.561 291V279.936H317.272V291H315.561ZM319.093 282.923H320.688V283.315C320.688 283.46 320.674 283.581 320.645 283.678C320.616 283.764 320.567 283.856 320.5 283.953L320.703 284.083C321.031 283.61 321.375 283.271 321.732 283.068C322.09 282.865 322.506 282.764 322.979 282.764C324.188 282.764 325.004 283.199 325.43 284.069C325.594 284.388 325.696 284.717 325.734 285.055C325.773 285.384 325.792 285.78 325.792 286.244V291H324.197V286.229C324.197 285.408 324.057 284.837 323.777 284.518C323.516 284.248 323.139 284.112 322.646 284.112C322.056 284.112 321.602 284.296 321.283 284.663C321.07 284.895 320.915 285.21 320.819 285.606C320.732 286.002 320.688 286.539 320.688 287.215V291H319.093V282.923ZM327.428 282.923H329.023V283.315C329.023 283.46 329.009 283.581 328.98 283.678C328.951 283.764 328.903 283.856 328.835 283.953L329.038 284.083C329.367 283.61 329.71 283.271 330.067 283.068C330.425 282.865 330.841 282.764 331.314 282.764C332.523 282.764 333.34 283.199 333.765 284.069C333.929 284.388 334.031 284.717 334.069 285.055C334.108 285.384 334.127 285.78 334.127 286.244V291H332.532V286.229C332.532 285.408 332.392 284.837 332.112 284.518C331.851 284.248 331.474 284.112 330.981 284.112C330.391 284.112 329.937 284.296 329.618 284.663C329.405 284.895 329.251 285.21 329.154 285.606C329.067 286.002 329.023 286.539 329.023 287.215V291H327.428V282.923ZM339.476 291.16C338.693 291.16 337.992 290.981 337.373 290.623C336.764 290.265 336.286 289.767 335.938 289.129C335.599 288.482 335.43 287.747 335.43 286.925C335.43 286.123 335.599 285.408 335.938 284.779C336.286 284.151 336.764 283.658 337.373 283.3C337.992 282.943 338.693 282.764 339.476 282.764C340.259 282.764 340.955 282.943 341.564 283.3C342.182 283.658 342.661 284.151 342.999 284.779C343.347 285.408 343.521 286.123 343.521 286.925C343.521 287.737 343.352 288.467 343.014 289.115C342.675 289.753 342.197 290.256 341.578 290.623C340.969 290.981 340.268 291.16 339.476 291.16ZM339.476 289.767C339.94 289.767 340.355 289.647 340.723 289.405C341.09 289.163 341.375 288.825 341.578 288.39C341.791 287.955 341.897 287.467 341.897 286.925C341.897 286.403 341.791 285.935 341.578 285.519C341.375 285.094 341.09 284.76 340.723 284.518C340.355 284.277 339.94 284.156 339.476 284.156C339.012 284.156 338.596 284.277 338.229 284.518C337.861 284.75 337.571 285.079 337.359 285.504C337.156 285.92 337.054 286.394 337.054 286.925C337.054 287.476 337.156 287.969 337.359 288.404C337.571 288.83 337.861 289.163 338.229 289.405C338.596 289.647 339.012 289.767 339.476 289.767ZM343.997 282.923H345.722L347.23 287.331C347.308 287.554 347.366 287.771 347.404 287.984C347.443 288.197 347.472 288.375 347.491 288.52C347.511 288.665 347.525 288.781 347.535 288.869H347.709C347.719 288.81 347.733 288.68 347.752 288.477C347.772 288.264 347.801 288.066 347.839 287.882C347.878 287.699 347.931 287.515 347.999 287.331L349.536 282.923H351.261L348.26 291H346.969L343.997 282.923ZM354.357 291.16C353.565 291.16 352.927 290.952 352.443 290.536C351.96 290.111 351.718 289.535 351.718 288.81C351.718 288.066 352.008 287.481 352.588 287.056C353.023 286.737 353.647 286.5 354.459 286.345L357.098 285.838C357.098 285.297 356.948 284.866 356.648 284.547C356.329 284.228 355.904 284.069 355.372 284.069C354.937 284.069 354.556 284.195 354.227 284.446C353.908 284.688 353.705 285.016 353.618 285.432H352.037C352.173 284.581 352.555 283.924 353.183 283.46C353.811 282.996 354.546 282.764 355.387 282.764C355.861 282.764 356.305 282.836 356.721 282.981C357.146 283.117 357.504 283.32 357.794 283.59C358.181 283.948 358.422 284.369 358.519 284.852C358.625 285.335 358.678 285.891 358.678 286.519V291H357.083V290.695C357.083 290.492 357.141 290.227 357.257 289.898L357.054 289.796C356.842 290.164 356.566 290.463 356.228 290.695C355.783 291.005 355.16 291.16 354.357 291.16ZM354.676 289.84C355.102 289.84 355.488 289.753 355.836 289.579C356.233 289.386 356.528 289.12 356.721 288.781C356.827 288.598 356.905 288.429 356.953 288.274C357.001 288.11 357.054 287.892 357.112 287.621C357.141 287.496 357.18 287.404 357.228 287.346C357.277 287.278 357.344 287.24 357.431 287.23L357.388 286.998L355.706 287.346L354.836 287.505C354.275 287.621 353.869 287.795 353.618 288.027C353.415 288.23 353.313 288.477 353.313 288.767C353.313 289.105 353.434 289.371 353.676 289.564C353.927 289.748 354.261 289.84 354.676 289.84ZM362.854 291C362.226 291 361.752 290.855 361.433 290.565C361.114 290.275 360.955 289.787 360.955 289.1V284.257H359.708V282.923H360.955V279.936H362.55V282.923H364.232V284.257H362.55V288.68C362.55 289.018 362.598 289.265 362.695 289.419C362.791 289.574 363.014 289.651 363.362 289.651H364.217V291H362.854ZM365.48 291V282.923H367.075V291H365.48ZM366.277 281.792C365.987 281.792 365.736 281.696 365.523 281.502C365.31 281.309 365.204 281.067 365.204 280.777C365.204 280.487 365.31 280.246 365.523 280.052C365.736 279.859 365.987 279.762 366.277 279.762C366.577 279.762 366.828 279.859 367.031 280.052C367.244 280.246 367.35 280.487 367.35 280.777C367.35 281.067 367.244 281.309 367.031 281.502C366.828 281.696 366.577 281.792 366.277 281.792ZM372.486 291.16C371.703 291.16 371.002 290.981 370.383 290.623C369.774 290.265 369.296 289.767 368.948 289.129C368.61 288.482 368.44 287.747 368.44 286.925C368.44 286.123 368.61 285.408 368.948 284.779C369.296 284.151 369.774 283.658 370.383 283.3C371.002 282.943 371.703 282.764 372.486 282.764C373.269 282.764 373.965 282.943 374.574 283.3C375.193 283.658 375.671 284.151 376.009 284.779C376.357 285.408 376.531 286.123 376.531 286.925C376.531 287.737 376.362 288.467 376.024 289.115C375.686 289.753 375.207 290.256 374.588 290.623C373.979 290.981 373.279 291.16 372.486 291.16ZM372.486 289.767C372.95 289.767 373.366 289.647 373.733 289.405C374.1 289.163 374.385 288.825 374.588 288.39C374.801 287.955 374.907 287.467 374.907 286.925C374.907 286.403 374.801 285.935 374.588 285.519C374.385 285.094 374.1 284.76 373.733 284.518C373.366 284.277 372.95 284.156 372.486 284.156C372.022 284.156 371.606 284.277 371.239 284.518C370.872 284.75 370.582 285.079 370.369 285.504C370.166 285.92 370.064 286.394 370.064 286.925C370.064 287.476 370.166 287.969 370.369 288.404C370.582 288.83 370.872 289.163 371.239 289.405C371.606 289.647 372.022 289.767 372.486 289.767ZM377.902 282.923H379.497V283.315C379.497 283.46 379.483 283.581 379.454 283.678C379.425 283.764 379.376 283.856 379.309 283.953L379.512 284.083C379.84 283.61 380.183 283.271 380.541 283.068C380.899 282.865 381.314 282.764 381.788 282.764C382.996 282.764 383.813 283.199 384.239 284.069C384.403 284.388 384.504 284.717 384.543 285.055C384.582 285.384 384.601 285.78 384.601 286.244V291H383.006V286.229C383.006 285.408 382.866 284.837 382.586 284.518C382.325 284.248 381.948 284.112 381.455 284.112C380.865 284.112 380.411 284.296 380.092 284.663C379.879 284.895 379.724 285.21 379.628 285.606C379.541 286.002 379.497 286.539 379.497 287.215V291H377.902V282.923Z" fill="#727373"/>
</svg>
